<?xml version="1.0" standalone="no"?>
<!DOCTYPE svg PUBLIC "-//W3C//DTD SVG 1.1//EN" "http://www.w3.org/Graphics/SVG/1.1/DTD/svg11.dtd" >
<svg xmlns="http://www.w3.org/2000/svg" xmlns:xlink="http://www.w3.org/1999/xlink" version="1.1">
<metadata>
Created by FontForge 20200314 at Tue Apr 21 21:38:15 2015
 By Unknown
Motorway Regular (c) 2015 K-Type  www.k-type.com  K-Type MOTORWAY is a full typeface based on the limited character set created by Jock Kinneir and Margaret Calvert for route numbers on UK motorway signs.
</metadata>
<defs>
<font id="MotorwayW01-Regular" horiz-adv-x="536" >
  <font-face 
    font-family="MotorwayW01-Regular"
    font-weight="400"
    font-stretch="normal"
    units-per-em="1000"
    panose-1="1 0 0 0 0 0 0 0 0 0"
    ascent="800"
    descent="-200"
    x-height="585"
    cap-height="810"
    bbox="-33 -210 1093 1047"
    underline-thickness="50"
    underline-position="-175"
    unicode-range="U+0009-2122"
  />
<missing-glyph horiz-adv-x="1000" 
 />
    <glyph glyph-name=".notdef" horiz-adv-x="1000" 
 />
    <glyph glyph-name="glyph1" horiz-adv-x="0" 
 />
    <glyph glyph-name="glyph1" horiz-adv-x="0" 
 />
    <glyph glyph-name="uni000D" unicode="&#xd;" horiz-adv-x="250" 
 />
    <glyph glyph-name="uni0009" unicode="&#x9;" horiz-adv-x="1000" 
 />
    <glyph glyph-name="uni000A" unicode="&#xa;" horiz-adv-x="1000" 
 />
    <glyph glyph-name="space" unicode=" " horiz-adv-x="250" 
 />
    <glyph glyph-name="exclam" unicode="!" horiz-adv-x="207" 
d="M165 545l-27 -356h-49l-27 356v265h103v-265zM167 39q0 -20 -14.5 -35t-34.5 -15h-9q-20 0 -34.5 15t-14.5 35v28q0 20 14.5 35.5t34.5 15.5h9q20 0 34.5 -15.5t14.5 -35.5v-28z" />
    <glyph glyph-name="quotedbl" unicode="&#x22;" horiz-adv-x="358" 
d="M308 779q0 -5 -1.5 -15.5t-4 -25.5t-6 -32.5t-6.5 -35.5q-8 -41 -17 -91h-24q-10 50 -18 91q-3 18 -6.5 35.5t-5.5 32.5t-3.5 25.5t-1.5 15.5v26q0 18 12.5 31.5t30.5 13.5h8q17 0 30 -13.5t13 -31.5v-26zM144 779q0 -5 -1.5 -15.5t-4 -25.5t-6 -32.5t-6.5 -35.5
q-8 -41 -17 -91h-24q-10 50 -18 91q-3 18 -6.5 35.5t-5.5 32.5t-3.5 25.5t-1.5 15.5v26q0 18 12.5 31.5t30.5 13.5h8q17 0 30 -13.5t13 -31.5v-26z" />
    <glyph glyph-name="numbersign" unicode="#" horiz-adv-x="615" 
d="M565 502h-106l-27 -194h100v-54h-107l-35 -254h-66l36 254h-144l-34 -254h-68l34 254h-98v54h106l27 194h-101v54h108l36 254h65l-34 -254h143l35 254h65l-35 -254h100v-54zM394 502h-144l-27 -194h143z" />
    <glyph glyph-name="dollar" unicode="$" horiz-adv-x="485" 
d="M435 183q0 -78 -44.5 -124t-123.5 -55v-118h-48v118q-81 7 -125 51.5t-44 118.5v7h93q4 -48 29.5 -72t67.5 -24q45 0 73 25.5t28 75.5v28q0 34 -12 64.5t-50 55.5l-137 90q-46 31 -66 71t-20 87v47q0 72 41 121t122 58v101h48v-102q79 -8 117.5 -52t38.5 -118v-12h-94
q-3 51 -24 76t-65 25q-46 0 -68.5 -30.5t-22.5 -78.5v-14q0 -38 11.5 -64.5t46.5 -49.5l138 -91q45 -29 67.5 -67.5t22.5 -95.5v-52z" />
    <glyph glyph-name="percent" unicode="%" horiz-adv-x="793" 
d="M753 123q0 -63 -35.5 -100.5t-107.5 -37.5q-71 0 -107 37.5t-36 100.5v207q0 63 36.5 100t107.5 37q70 0 106 -37.5t36 -100.5v-206zM584 847l-317 -898l-56 19l317 900zM326 480q0 -63 -35.5 -100.5t-107.5 -37.5q-71 0 -107 37.5t-36 100.5v207q0 63 36 100.5t107 37.5
q70 0 106.5 -38t36.5 -101v-206zM680 132v190q0 15 -4.5 29t-13.5 25.5t-22 18.5t-29 7q-36 0 -53 -25t-17 -56v-190q0 -31 17 -55.5t52 -24.5q36 0 53 24.5t17 56.5zM252 489v190q0 15 -4.5 29t-13.5 25.5t-22 18.5t-29 7q-35 0 -52 -25t-17 -56v-189q0 -31 17 -56t52 -25
q36 0 52.5 25t16.5 56z" />
    <glyph glyph-name="ampersand" unicode="&#x26;" horiz-adv-x="494" 
d="M479 -3q-11 -3 -22 -3q-9 0 -17 3t-17 11t-19 22t-22 36q-31 -38 -72 -59.5t-95 -21.5q-82 0 -131 44t-49 120v117q0 23 7 43t19 41q9 14 18 24.5t20 21.5q11 12 24.5 24.5t35.5 33.5q-7 13 -15 27.5t-15 26.5l-16 28q-14 23 -23 47t-9 49v52q0 31 12 57t34 44.5t51 29
t64 10.5t64 -10.5t49.5 -29t32 -44.5t11.5 -57v-56q0 -27 -12.5 -55t-32.5 -45l-91 -86l117 -206q3 15 4 27.5t2 24t1 24.5v30v6h75v-17q0 -30 -2 -54t-5.5 -45t-10 -40.5t-15.5 -39.5q15 -27 25.5 -36t24.5 -13v-106zM314 645v29q0 36 -21 56.5t-53 20.5t-53.5 -20
t-21.5 -57v-31q0 -11 3.5 -26t10.5 -27q5 -9 11 -20q5 -10 13.5 -25t19.5 -34q34 33 51 48q10 9 16 15q14 13 19 31.5t5 39.5zM339 139l-139 244q-25 -24 -40 -42t-23.5 -34t-11 -32t-2.5 -34v-57q0 -54 23 -84.5t74 -30.5q36 0 67.5 17t51.5 53z" />
    <glyph glyph-name="quotesingle" unicode="'" horiz-adv-x="194" 
d="M144 779q0 -5 -1.5 -15.5t-4 -25.5t-6 -32.5t-6.5 -35.5q-8 -41 -17 -91h-24q-10 50 -18 91q-3 18 -6.5 35.5t-5.5 32.5t-3.5 25.5t-1.5 15.5v26q0 18 12.5 31.5t30.5 13.5h8q17 0 30 -13.5t13 -31.5v-26z" />
    <glyph glyph-name="parenleft" unicode="(" horiz-adv-x="271" 
d="M211 -46l-39 -56q-133 254 -133 511t133 508l39 -57q-80 -230 -80 -453t80 -453z" />
    <glyph glyph-name="parenright" unicode=")" horiz-adv-x="271" 
d="M100 917q132 -251 132 -508t-133 -511l-39 56q81 230 81 453t-81 453z" />
    <glyph glyph-name="asterisk" unicode="*" horiz-adv-x="371" 
d="M346 667l-121 -44l77 -107l-38 -29l-74 108l-77 -109l-37 25l77 114l-128 37l13 46l123 -35v137h47v-138l123 40z" />
    <glyph glyph-name="plus" unicode="+" horiz-adv-x="578" 
d="M528 298h-203v-213h-73v213h-202v74h202v213h73v-213h203v-74z" />
    <glyph glyph-name="comma" unicode="," horiz-adv-x="192" 
d="M152 16q0 -23 -3 -38.5t-9 -26t-15.5 -17.5t-22.5 -12l-41 -15l-15 40l36 14q16 6 16 18q0 5 -1.5 9t-8.5 4q-18 0 -33 14t-15 34v33q0 20 15 35t36 15h10q21 0 36 -15t15 -35v-33v-24z" />
    <glyph glyph-name="hyphen" unicode="-" horiz-adv-x="337" 
d="M302 264h-267v86h267v-86z" />
    <glyph glyph-name="period" unicode="." horiz-adv-x="192" 
d="M152 40q0 -21 -15 -36.5t-36 -15.5h-10q-21 0 -36 15.5t-15 36.5v30q0 20 15 36t36 16h10q21 0 36 -16t15 -36v-30z" />
    <glyph glyph-name="slash" unicode="/" horiz-adv-x="387" 
d="M387 904l-320 -1018l-67 22l320 1019z" />
    <glyph glyph-name="zero" unicode="0" horiz-adv-x="463" 
d="M418 182q0 -51 -16 -88.5t-42 -61.5t-59.5 -35.5t-68.5 -11.5q-36 0 -69.5 11.5t-59.5 35.5t-42 61t-16 89v445q0 52 15.5 90t41.5 62t59.5 35.5t70.5 11.5t71 -11.5t59.5 -36t40.5 -62t15 -89.5v-445zM323 196v412q0 57 -20.5 95.5t-71.5 38.5q-48 0 -69.5 -37.5
t-21.5 -96.5v-411q0 -57 21.5 -93t69.5 -36q47 0 69.5 35.5t22.5 92.5z" />
    <glyph glyph-name="one" unicode="1" horiz-adv-x="293" 
d="M223 0h-98v650h-75v73q45 2 63.5 22.5t20.5 64.5h89v-810z" />
    <glyph glyph-name="two" unicode="2" horiz-adv-x="442" 
d="M407 0h-372v106q0 47 2.5 76t12 52t28 45.5t51.5 55.5l126 130q32 32 44 62t12 75v42q0 27 -9 46t-22.5 31t-29.5 17t-30 5t-29.5 -5t-29 -17t-22.5 -31t-9 -47v-63h-93v75q0 48 16.5 80.5t42.5 52.5t59 28.5t65 8.5q33 0 66 -8.5t59 -28.5t42.5 -52.5t16.5 -80.5v-65
q0 -57 -20 -103t-63 -89l-108 -109q-23 -23 -38.5 -41t-25.5 -35t-14 -36.5t-4 -46.5v-42h276v-88z" />
    <glyph glyph-name="three" unicode="3" horiz-adv-x="454" 
d="M412 156q0 -48 -16 -81t-42.5 -53t-60.5 -29t-70 -9q-50 0 -85.5 13t-58 34t-33.5 48.5t-11 56.5v114h94v-71q0 -48 24.5 -80t70.5 -32q48 0 71 32t23 80v95q0 43 -9 69.5t-32 38.5q-11 5 -23 7t-26 3h-46v76q28 0 52 4t42 17t28 37.5t10 65.5v35q0 31 -8 53.5t-21.5 36
t-30 20t-32.5 6.5q-17 0 -34 -6.5t-30.5 -22t-22 -40.5t-7.5 -61h-92q-2 58 10.5 98t37.5 65.5t60.5 37t79.5 11.5q46 0 80.5 -13.5t57.5 -36t34.5 -53t11.5 -63.5v-84q0 -29 -3.5 -51.5t-14 -39.5t-29.5 -28t-49 -17v-1q27 -7 46 -17.5t31 -28t17.5 -42.5t5.5 -61v-133z
" />
    <glyph glyph-name="four" unicode="4" horiz-adv-x="480" 
d="M455 157l-58 1v-158h-96v157h-279v86l279 567h96v-565h58v-88zM301 634h-2l-187 -389l189 -1v390z" />
    <glyph glyph-name="five" unicode="5" horiz-adv-x="458" 
d="M418 172q0 -57 -16 -93.5t-42.5 -57.5t-60.5 -29t-70 -8q-35 0 -69 9.5t-61 34t-42 66t-11 105.5h93q-3 -70 23.5 -101.5t69.5 -31.5q46 0 69 32t23 84v168q0 54 -25 85t-67 31q-38 0 -60 -21t-30 -53h-90v418h341v-88h-253v-220h2q21 21 50 31.5t61 10.5q40 0 71 -14.5
t52 -39t31.5 -56.5t10.5 -67v-195z" />
    <glyph glyph-name="six" unicode="6" horiz-adv-x="450" 
d="M410 162q0 -35 -10.5 -67t-33 -56.5t-56.5 -39t-80 -14.5q-55 0 -91.5 14.5t-58.5 39t-31 56.5t-9 67v263q0 31 1.5 54.5t5.5 44t11 40t19 43.5l97 204h106l-147 -306h2q26 22 54.5 31t58.5 9q35 0 65 -13t51.5 -37t33.5 -57.5t12 -73.5v-202zM317 180v185q0 45 -23 74
t-70 29t-69 -29t-22 -74v-185q0 -52 23 -82t68 -30q46 0 69.5 30.5t23.5 81.5z" />
    <glyph glyph-name="seven" unicode="7" horiz-adv-x="402" 
d="M382 725l-213 -726h-99l214 724h-272v87h370v-85z" />
    <glyph glyph-name="eight" unicode="8" horiz-adv-x="457" 
d="M415 153q0 -41 -13.5 -72.5t-38.5 -53t-59 -32.5t-76 -11q-41 0 -75 11t-59 32t-38.5 52.5t-13.5 73.5v115q0 38 4.5 65.5t15.5 47.5t29.5 33t46.5 22v1q-28 8 -45.5 21t-27.5 30t-14 38t-4 45v93q0 83 50 122t131 39q83 0 132.5 -39t49.5 -122v-94q0 -48 -19.5 -83.5
t-70.5 -49.5v-1q55 -17 75 -50.5t20 -97.5v-135zM316 568v68q0 47 -20 76.5t-67 29.5q-45 0 -67 -29t-22 -77v-69q0 -45 21 -72t68 -27t67 28.5t20 71.5zM322 175v120q0 43 -23.5 73t-69.5 30t-70 -30t-24 -73v-120q0 -45 23.5 -76t69.5 -31q48 0 71 31t23 76z" />
    <glyph glyph-name="nine" unicode="9" horiz-adv-x="450" 
d="M410 385q0 -31 -1.5 -54t-5.5 -43.5t-11 -40t-19 -43.5l-98 -204h-106l148 306h-2q-26 -22 -54.5 -31t-59.5 -9q-35 0 -64.5 13t-51 36.5t-33.5 57t-12 74.5v202q0 35 10.5 67t32.5 56.5t56 39t81 14.5q54 0 90.5 -14.5t58.5 -39t31.5 -56.5t9.5 -68v-263zM317 446v185
q0 52 -23 82t-69 30q-45 0 -68.5 -30.5t-23.5 -81.5v-186q0 -44 23 -73t69 -29q47 0 69.5 29t22.5 74z" />
    <glyph glyph-name="colon" unicode=":" horiz-adv-x="212" 
d="M162 489q0 -21 -15 -36.5t-36 -15.5h-10q-21 0 -36 15.5t-15 36.5v30q0 20 15 36t36 16h10q21 0 36 -16t15 -36v-30zM162 40q0 -21 -15 -36.5t-36 -15.5h-10q-21 0 -36 15.5t-15 36.5v30q0 20 15 36t36 16h10q21 0 36 -16t15 -36v-30z" />
    <glyph glyph-name="semicolon" unicode=";" horiz-adv-x="212" 
d="M162 489q0 -21 -15 -36.5t-36 -15.5h-10q-21 0 -36 15.5t-15 36.5v30q0 20 15 36t36 16h10q21 0 36 -16t15 -36v-30zM162 16q0 -23 -3 -38.5t-9 -26t-15.5 -17.5t-22.5 -12l-41 -15l-15 40l36 14q16 6 16 18q0 5 -1.5 9t-8.5 4q-18 0 -33 14t-15 34v33q0 20 15 35t36 15
h10q21 0 36 -15t15 -35v-33v-24z" />
    <glyph glyph-name="less" unicode="&#x3c;" horiz-adv-x="550" 
d="M500 91l-450 272v72l450 272v-88l-374 -220l374 -221v-87z" />
    <glyph glyph-name="equal" unicode="=" horiz-adv-x="626" 
d="M546 425h-466v74h466v-74zM546 169h-466v74h466v-74z" />
    <glyph glyph-name="greater" unicode="&#x3e;" horiz-adv-x="550" 
d="M500 363l-450 -272v87l373 221l-373 220v88l450 -272v-72z" />
    <glyph glyph-name="question" unicode="?" horiz-adv-x="440" 
d="M410 622q0 -29 -6.5 -51.5t-17.5 -44.5q-11 -23 -26.5 -45t-32.5 -49q-8 -11 -16.5 -25t-16.5 -25q-10 -14 -19 -27q-22 -33 -27 -60.5t-5 -59.5v-46h-92v62q0 23 1.5 38.5t5.5 29t12 27.5t21 34l72 111q10 14 20 31q11 16 18 31q8 17 12.5 35.5t4.5 41.5v17
q0 46 -27 69.5t-62 23.5q-35 -1 -61.5 -24t-26.5 -70v-77h-91v86q0 84 49 127t131 43t131 -43t49 -127v-33zM250 39q0 -20 -14.5 -35t-34.5 -15h-9q-20 0 -34.5 15t-14.5 35v28q0 20 14.5 35.5t34.5 15.5h9q20 0 34.5 -15.5t14.5 -35.5v-28z" />
    <glyph glyph-name="at" unicode="@" horiz-adv-x="857" 
d="M807 485q0 -47 -14.5 -98.5t-42 -95t-67.5 -72t-91 -28.5q-37 0 -64.5 16t-41.5 50h-1q-22 -32 -55.5 -49.5t-81.5 -17.5q-35 0 -62 12.5t-43.5 34.5t-22.5 52t1 66l27 138q7 36 23 65t38.5 49.5t50 31.5t56.5 11q38 0 63.5 -13.5t36.5 -34.5h1l7 34h81l-53 -268
q-1 -6 -2 -14t-3 -16q-2 -9 -3 -17t-1 -15q0 -20 13 -36t42 -16q26 0 45 13t29 27q29 39 43 89.5t14 98.5q0 63 -22 113.5t-60 86t-90 55t-113 19.5q-59 0 -115.5 -25.5t-101 -71.5t-72 -109.5t-27.5 -138.5q0 -82 28 -148t73.5 -112t103.5 -70.5t118 -24.5q57 0 111 20
t93 51l27 -59q-45 -35 -103 -57t-128 -22q-87 0 -160.5 34.5t-127 92.5t-83.5 134.5t-30 159.5t31.5 157.5t85 131t124.5 90t151 33.5q75 0 141.5 -24t116 -68.5t78.5 -106.5t29 -138zM496 490q3 17 1.5 34.5t-9.5 31.5t-22.5 22.5t-36.5 8.5q-21 0 -38 -8t-29.5 -20.5
t-20.5 -29t-11 -34.5l-27 -142q-3 -17 -1 -34.5t10 -31.5t22 -23.5t35 -9.5t38 8t29.5 21.5t21 30.5t11.5 35z" />
    <glyph glyph-name="A" unicode="A" horiz-adv-x="510" 
d="M500 0h-100l-33 151h-223l-34 -151h-100l178 810h134zM350 226l-94 443h-2l-94 -443h190z" />
    <glyph glyph-name="B" unicode="B" horiz-adv-x="508" 
d="M468 191q0 -92 -45 -141.5t-135 -49.5h-228v810h217q50 0 84 -12.5t55 -35.5t30.5 -56.5t9.5 -75.5v-58q0 -63 -23.5 -100.5t-67.5 -49.5v-1q55 -16 79 -59.5t24 -110.5v-60zM359 590v12q0 36 -6 59.5t-18.5 37t-32 18.5t-46.5 5h-98v-268h88q32 0 53.5 6t35 21.5t19 42
t5.5 66.5zM370 223v12q0 25 -3 49.5t-13.5 44t-31 32t-56.5 12.5h-108v-285h106q37 0 58 11t31.5 29.5t13.5 43t3 51.5z" />
    <glyph glyph-name="C" unicode="C" horiz-adv-x="501" 
d="M476 176q0 -36 -10 -70.5t-35 -61.5t-66 -43t-102 -16t-102 17t-65.5 44t-35 61t-10.5 69v447q0 27 6.5 62.5t28.5 66.5t64.5 52.5t113.5 21.5q72 0 114 -21.5t64 -53t28.5 -66t6.5 -61.5v-27h-98v10q0 21 -4.5 44.5t-17 43.5t-34.5 33t-58 13q-40 0 -63 -15t-34.5 -36
t-14.5 -45t-3 -42v-408q0 -20 5 -42t18 -40.5t35.5 -30.5t56.5 -12q33 0 55 12.5t35 32t18.5 41.5t5.5 42v4h98v-26z" />
    <glyph glyph-name="D" unicode="D" horiz-adv-x="538" 
d="M488 203q0 -56 -9 -94.5t-30.5 -62.5t-58.5 -35t-93 -11h-237v810h238q47 0 82.5 -9t59.5 -31.5t36 -61t12 -96.5v-409zM391 209v395q0 37 -8.5 61t-24.5 37t-40 18t-55 5h-105v-640h105q27 0 50 5t40.5 18.5t27.5 38t10 62.5z" />
    <glyph glyph-name="E" unicode="E" horiz-adv-x="463" 
d="M443 0h-383v810h381v-88l-283 1v-268h246v-82h-246v-286h285v-87z" />
    <glyph glyph-name="F" unicode="F" horiz-adv-x="429" 
d="M429 722h-271v-268h236v-81h-236v-373h-98v810h369v-88z" />
    <glyph glyph-name="G" unicode="G" horiz-adv-x="540" 
d="M490 187q0 -38 -11.5 -74t-37.5 -64.5t-68 -46t-103 -17.5t-103 17.5t-68 46t-37.5 64.5t-11.5 74v433q0 30 8.5 66t32.5 67t67 52t112 21t112 -21t67 -51.5t32.5 -66.5t8.5 -66v-11h-98q0 22 -6.5 45t-20.5 42t-37 31.5t-57 12.5q-37 0 -60.5 -12t-37 -31.5t-19 -43.5
t-5.5 -48v-413q0 -21 6.5 -42.5t21 -39.5t38 -29.5t56.5 -11.5t56 11.5t37.5 29.5t21 40t6.5 43v179h-121v82h219v-268z" />
    <glyph glyph-name="H" unicode="H" horiz-adv-x="558" 
d="M498 0h-98v375h-242v-375h-98v810h98v-357h242v357h98v-810z" />
    <glyph glyph-name="I" unicode="I" horiz-adv-x="218" 
d="M158 0h-98v810h98v-810z" />
    <glyph glyph-name="J" unicode="J" horiz-adv-x="427" 
d="M367 182q0 -39 -7.5 -74.5t-28 -63t-56.5 -43.5t-93 -16q-53 0 -88 18t-56 46.5t-29.5 63t-8.5 67.5v33h95l1 -21q0 -19 3.5 -40.5t13 -39.5t26 -30t43.5 -12q86 0 86 123v617h99v-628z" />
    <glyph glyph-name="K" unicode="K" horiz-adv-x="501" 
d="M491 0h-110l-222 394h-1v-394h-98v810h98v-376h1l215 376h105l-228 -391z" />
    <glyph glyph-name="L" unicode="L" horiz-adv-x="411" 
d="M406 0h-346v810h98v-723h248v-87z" />
    <glyph glyph-name="M" unicode="M" horiz-adv-x="667" 
d="M607 0h-98v639h-1l-149 -449h-51l-149 449h-1v-639h-98v810h130l144 -437h1l143 437h129v-810z" />
    <glyph glyph-name="N" unicode="N" horiz-adv-x="564" 
d="M504 -1h-100l-245 597h-1v-596h-98v810h100l245 -597h1v597h98v-811z" />
    <glyph glyph-name="O" unicode="O" 
d="M486 182q0 -51 -16.5 -88t-46 -61.5t-69.5 -36t-86 -11.5t-85.5 11.5t-69 36t-46.5 61.5t-17 88v445q0 52 16 89.5t45 62t69.5 36t88.5 11.5t88 -12t68.5 -36.5t44.5 -62t16 -88.5v-445zM388 209v392q0 29 -6.5 54.5t-20.5 44.5t-37 30t-56 11t-55.5 -10.5t-37 -29.5
t-20.5 -44.5t-6 -55.5v-392q0 -29 6.5 -54.5t20.5 -44.5t37 -29.5t55 -10.5t54.5 10.5t37 29.5t21.5 44.5t7 54.5z" />
    <glyph glyph-name="P" unicode="P" horiz-adv-x="491" 
d="M471 552q0 -43 -8.5 -80t-28.5 -64t-53.5 -42.5t-82.5 -15.5h-140v-350h-98v810h239q83 0 127.5 -50.5t44.5 -134.5v-73zM373 556v48q0 29 -5 51.5t-18 38t-35 23.5t-56 8h-101v-290h100q60 0 87.5 29.5t27.5 91.5z" />
    <glyph glyph-name="Q" unicode="Q" horiz-adv-x="537" 
d="M537 -31l-54 -55l-96 96q-23 -11 -50.5 -17.5t-68.5 -6.5q-47 0 -87 12t-69 36.5t-45.5 61t-16.5 85.5v451q0 97 59 145t159 48q101 0 159.5 -48t58.5 -145v-449q0 -40 -9.5 -70.5t-28.5 -54.5zM389 206v408q0 60 -34.5 93t-86.5 33q-53 0 -86.5 -33t-33.5 -93v-408
q0 -61 30.5 -98t90.5 -37t90 37.5t30 97.5z" />
    <glyph glyph-name="R" unicode="R" horiz-adv-x="520" 
d="M515 0h-100l-64 261q-8 33 -18 54.5t-23 35t-30.5 19t-41.5 5.5h-80v-375h-98v810h239q82 0 127 -49t45 -127v-66q0 -58 -30.5 -99t-80.5 -53v-1q29 -13 49.5 -43.5t35.5 -89.5zM373 575v29q0 29 -5 51.5t-18 38t-35 23.5t-56 8h-101v-272h100q60 0 87.5 30t27.5 92z" />
    <glyph glyph-name="S" unicode="S" horiz-adv-x="487" 
d="M452 169q0 -45 -16.5 -79t-45 -57.5t-67 -35.5t-81.5 -12t-81 11t-66 33t-44 54.5t-16 75.5v14h98q5 -51 34.5 -77t74.5 -26q48 0 79.5 28.5t31.5 80.5v29q0 36 -14.5 67.5t-54.5 56.5l-152 93q-50 31 -69.5 69.5t-19.5 92.5v56q0 41 14.5 75t40.5 58t62.5 37t80.5 13
q90 0 145 -44t55 -131v-18h-99q-8 108 -100 108q-48 0 -74.5 -29.5t-26.5 -81.5v-21q0 -42 14.5 -68.5t50.5 -49.5l153 -94q48 -29 70.5 -69.5t22.5 -98.5v-60z" />
    <glyph glyph-name="T" unicode="T" horiz-adv-x="427" 
d="M422 722h-159v-722h-98v722h-160v88h417v-88z" />
    <glyph glyph-name="U" unicode="U" 
d="M486 182q0 -51 -16.5 -88t-46 -61.5t-69.5 -36t-86 -11.5t-85.5 11.5t-69 36t-46.5 61.5t-17 88v628h98v-601q0 -29 7 -54.5t22 -44.5t37.5 -29.5t53.5 -10.5t54 10.5t38 29.5t22 44.5t7 54.5l-1 601h98v-628z" />
    <glyph glyph-name="V" unicode="V" horiz-adv-x="483" 
d="M475 810l-174 -810h-120l-173 810h100l133 -627h1l133 627h100z" />
    <glyph glyph-name="W" unicode="W" horiz-adv-x="655" 
d="M645 810l-128 -810h-108l-81 523h-1l-81 -523h-108l-128 810h99l93 -588h1l92 588h65l93 -588h1l92 588h99z" />
    <glyph glyph-name="X" unicode="X" horiz-adv-x="472" 
d="M462 0h-102l-124 310h-1l-123 -310h-102l175 428l-156 382h102l105 -262h1l104 262h102l-157 -381z" />
    <glyph glyph-name="Y" unicode="Y" horiz-adv-x="486" 
d="M476 810l-184 -491v-319h-98v319l-184 491h100l133 -361h1l132 361h100z" />
    <glyph glyph-name="Z" unicode="Z" horiz-adv-x="440" 
d="M415 0h-395v85l295 637h-292v88h392v-86l-294 -637h294v-87z" />
    <glyph glyph-name="bracketleft" unicode="[" horiz-adv-x="274" 
d="M254 -187h-214v1099h213v-45h-127v-1010h128v-44z" />
    <glyph glyph-name="backslash" unicode="\" horiz-adv-x="387" 
d="M387 -92l-67 -22l-320 1018l67 23z" />
    <glyph glyph-name="bracketright" unicode="]" horiz-adv-x="274" 
d="M234 -187h-213v44h127v1010h-128v45h214v-1099z" />
    <glyph glyph-name="asciicircum" unicode="^" horiz-adv-x="836" 
d="M664 387h-78l-166 340l-171 -340h-76l213 423h74z" />
    <glyph glyph-name="underscore" unicode="_" horiz-adv-x="574" 
d="M585 -163h-596v67h596v-67z" />
    <glyph glyph-name="grave" unicode="`" horiz-adv-x="504" 
d="M218 656h-63l-96 154h101z" />
    <glyph glyph-name="a" unicode="a" horiz-adv-x="426" 
d="M410 0h-91q-5 7 -10 18t-7 20h-1q-15 -23 -43.5 -38t-70.5 -15q-80 0 -118.5 39.5t-38.5 101.5v41q0 62 29 102.5t80 57.5l151 50v41q0 49 -18.5 78t-62.5 29q-41 0 -60.5 -26t-22.5 -68h-82v12q0 34 10 63t31 50t52.5 33t74.5 12q85 0 126.5 -47t41.5 -133v-274
q0 -30 1.5 -51.5t5 -38.5t9 -30.5t14.5 -26.5zM289 152v155l-88 -29q-38 -12 -59 -40t-21 -70v-16q0 -41 19.5 -66.5t64.5 -25.5q43 0 63.5 25t20.5 67z" />
    <glyph glyph-name="b" unicode="b" horiz-adv-x="445" 
d="M405 158q0 -40 -11 -72t-31 -54.5t-47.5 -34.5t-60.5 -12q-32 0 -62.5 13t-50.5 36h-1v-33h-91v809h91v-256h1q23 24 51.5 35t62.5 11q31 0 58.5 -12t47.5 -34.5t31.5 -55t11.5 -72.5v-268zM314 164v257q0 21 -5.5 39.5t-16.5 32.5t-27 22.5t-37 8.5q-23 0 -39.5 -9
t-27 -23.5t-16 -33.5t-5.5 -38v-257q0 -20 5.5 -38t16 -32.5t27 -23t38.5 -8.5q45 0 66 29t21 74z" />
    <glyph glyph-name="c" unicode="c" horiz-adv-x="421" 
d="M396 431h-91q-1 18 -7.5 35t-17.5 30t-26.5 21t-34.5 8q-23 0 -39.5 -9t-27 -23.5t-16 -33t-5.5 -38.5v-257q0 -20 5.5 -38.5t16 -33t27 -23.5t38.5 -9q42 0 63 28t24 64h91q-2 -76 -46.5 -121.5t-131.5 -45.5q-88 0 -133 47.5t-45 128.5v264q0 81 45 128.5t134 47.5
q85 0 130 -46t47 -124z" />
    <glyph glyph-name="d" unicode="d" horiz-adv-x="445" 
d="M395 1h-91v33h-1q-20 -23 -50.5 -36t-62.5 -13q-33 0 -60.5 12t-47.5 34.5t-31 54.5t-11 72v268q0 40 11.5 72.5t32 55t47.5 34.5t59 12q34 0 62.5 -11t50.5 -35h1v256h91v-809zM305 163v257q0 19 -5.5 38t-16 33.5t-27 23.5t-38.5 9q-21 0 -37 -8.5t-27.5 -23t-17 -33
t-5.5 -38.5v-257q0 -44 21 -73.5t66 -29.5q22 0 38.5 8.5t27 23t16 32.5t5.5 38z" />
    <glyph glyph-name="e" unicode="e" horiz-adv-x="439" 
d="M399 276h-269v-114q0 -45 23 -73t67 -28q40 0 61.5 24.5t26.5 66.5h90v-10q0 -35 -13 -64t-36.5 -49.5t-55.5 -32t-70 -11.5q-94 0 -138.5 47t-44.5 133v262q0 36 11 68t33.5 55.5t56 37t79.5 13.5t79.5 -13.5t55.5 -37t33 -55t11 -67.5v-152zM309 348v80
q0 40 -22.5 68.5t-66.5 28.5q-45 0 -67 -28.5t-22 -68.5v-80h178z" />
    <glyph glyph-name="f" unicode="f" horiz-adv-x="259" 
d="M251 737q-39 7 -59.5 -12t-20.5 -76v-65h73v-70h-73v-514h-91v514h-65v70h65v76q0 75 33 116t99 41q21 0 39 -5v-75z" />
    <glyph glyph-name="g" unicode="g" horiz-adv-x="445" 
d="M395 -18q0 -99 -42.5 -145.5t-125.5 -46.5t-124 39.5t-44 105.5h83q5 -29 25.5 -50t55.5 -21q44 0 62.5 29t18.5 77v113h-1q-19 -24 -43.5 -36t-63.5 -12q-33 0 -61.5 12.5t-49.5 35.5t-33 55.5t-12 72.5v217q0 80 42.5 126.5t112.5 46.5q34 0 64 -14t44 -36h1v35h91
v-604zM305 209v213q0 19 -5.5 38t-16 33t-27 23t-38.5 9q-45 0 -66 -30t-21 -73v-214q0 -20 5.5 -38.5t17 -32.5t27.5 -23t37 -9q22 0 38.5 9t27 23.5t16 33t5.5 38.5z" />
    <glyph glyph-name="h" unicode="h" horiz-adv-x="447" 
d="M402 0h-91v426q0 43 -21 71t-63 28q-45 0 -65.5 -29.5t-20.5 -78.5v-417h-91v810h91v-255h1q19 22 47 34t63 12q32 0 59.5 -12t47.5 -34.5t31.5 -55t11.5 -72.5v-427z" />
    <glyph glyph-name="i" unicode="i" horiz-adv-x="191" 
d="M144 741q0 -19 -13 -33t-30 -14h-11q-17 0 -30 14t-13 33v37q0 19 13 33t30 14h11q17 0 30 -14t13 -33v-37zM141 0h-91v586h91v-586z" />
    <glyph glyph-name="j" unicode="j" horiz-adv-x="192" 
d="M145 742q0 -19 -13.5 -33t-30.5 -14h-10q-17 0 -30 14t-13 33v36q0 19 13 33t30 14h10q17 0 30.5 -14t13.5 -33v-36zM142 586v-628q0 -45 -10.5 -73.5t-28 -45.5t-40.5 -23.5t-49 -6.5q-20 0 -35 3v76q44 -5 58 19t14 69v610h91z" />
    <glyph glyph-name="k" unicode="k" horiz-adv-x="432" 
d="M427 0h-100l-185 294h-1v-294h-91v810h91v-473h1l172 249h94l-181 -264z" />
    <glyph glyph-name="l" unicode="l" horiz-adv-x="193" 
d="M171 0h-93q-12 19 -20 50.5t-8 60.5v699h91v-681q0 -39 6.5 -71t23.5 -58z" />
    <glyph glyph-name="m" unicode="m" horiz-adv-x="680" 
d="M635 0h-91v431q0 45 -20.5 69t-56.5 24t-57.5 -26.5t-21.5 -75.5v-422h-91v431q0 45 -20.5 69t-56.5 24q-37 0 -58 -27t-21 -75v-422h-91v585h91v-32h1q19 23 47 35.5t57 12.5q42 0 75 -23.5t51 -58.5q22 38 55.5 60t72.5 22q26 0 50.5 -12.5t43 -35.5t30 -55.5
t11.5 -73.5v-424z" />
    <glyph glyph-name="n" unicode="n" horiz-adv-x="447" 
d="M402 0h-91v423q0 21 -5.5 39.5t-16 32.5t-26 22.5t-36.5 8.5q-22 0 -38.5 -8.5t-27 -23.5t-15.5 -35.5t-5 -43.5v-415h-91v585h91v-33h1q19 23 48.5 36t59.5 13q33 0 61 -12.5t48 -35.5t31.5 -55.5t11.5 -73.5v-424z" />
    <glyph glyph-name="o" unicode="o" horiz-adv-x="436" 
d="M396 160q0 -80 -44.5 -127.5t-133.5 -47.5q-88 0 -133 47.5t-45 128.5v264q0 81 45.5 128.5t133.5 47.5q87 0 132 -48t45 -129v-264zM305 159v268q0 19 -5.5 36.5t-16.5 31t-27 22t-37 8.5q-45 0 -66.5 -30t-21.5 -70v-266q0 -40 21.5 -69.5t65.5 -29.5q45 0 66 29.5
t21 69.5z" />
    <glyph glyph-name="p" unicode="p" horiz-adv-x="445" 
d="M405 160q0 -41 -11.5 -73t-31.5 -55t-47.5 -35t-58.5 -12q-69 0 -114 46h-1v-231h-91v786h91v-34h1q20 23 50.5 36t62.5 13q33 0 60.5 -12t47.5 -34.5t31 -54.5t11 -72v-268zM314 164v258q0 21 -5 39.5t-16 32.5t-27.5 22.5t-38.5 8.5t-38.5 -9t-27 -23t-16 -33t-5.5 -38
v-256q0 -20 5.5 -38.5t16 -33t27 -23.5t39.5 -9q21 0 37 8.5t27 22.5t16.5 32.5t5.5 38.5z" />
    <glyph glyph-name="q" unicode="q" horiz-adv-x="445" 
d="M395 -200h-91v231h-1q-43 -46 -113 -46q-32 0 -59 12t-47.5 35t-32 55t-11.5 73v268q0 40 11 72t31 54.5t47.5 34.5t60.5 12q32 0 62.5 -13t50.5 -36h1v33h91v-785zM305 166v256q0 19 -5.5 38t-16 33t-27 23t-38.5 9q-45 0 -66 -29.5t-21 -73.5v-258q0 -42 22.5 -72
t64.5 -30q22 0 38.5 9t27 23.5t16 33t5.5 38.5z" />
    <glyph glyph-name="r" unicode="r" horiz-adv-x="306" 
d="M296 494q-15 6 -39 6q-54 0 -85 -38.5t-31 -124.5v-337h-91v585h91v-83h1q11 44 43 69.5t77 25.5q19 0 34 -6v-97z" />
    <glyph glyph-name="s" unicode="s" horiz-adv-x="400" 
d="M370 129q0 -33 -12.5 -59.5t-35 -45.5t-54 -29t-68.5 -10q-34 0 -64.5 9.5t-53.5 29.5t-37 52t-15 76h89q4 -45 25.5 -68t54.5 -23t57 18.5t24 53.5v16q0 23 -11 45.5t-39 38.5l-121 67q-35 20 -54 54t-19 70v37q0 30 12 55.5t34 44.5t52 29.5t66 10.5q35 0 64.5 -10.5
t51.5 -31t35 -51t14 -71.5h-90q-5 88 -74 88q-35 0 -54.5 -20t-19.5 -49v-15q0 -54 46 -79l122 -68q35 -20 55 -51t20 -77v-37z" />
    <glyph glyph-name="t" unicode="t" horiz-adv-x="276" 
d="M266 -4q-30 -8 -59 -8q-64 0 -98 34t-34 118v373h-65v71h65v117l91 39v-156h93v-71h-93v-359q0 -60 22 -77.5t78 -5.5v-75z" />
    <glyph glyph-name="u" unicode="u" horiz-adv-x="445" 
d="M395 0h-91v33h-1q-19 -22 -48 -35t-58 -13q-67 0 -109.5 47.5t-42.5 129.5v424h91v-424q0 -21 5 -39.5t15.5 -32.5t26.5 -22.5t37 -8.5q44 0 64 32.5t20 78.5v416h91v-586z" />
    <glyph glyph-name="v" unicode="v" horiz-adv-x="378" 
d="M373 586l-140 -586h-87l-141 586h94l90 -405h1l89 405h94z" />
    <glyph glyph-name="w" unicode="w" horiz-adv-x="575" 
d="M570 586l-125 -586h-75l-82 400h-1l-81 -400h-76l-125 586h94l75 -387h1l81 387h63l81 -387h1l76 387h93z" />
    <glyph glyph-name="x" unicode="x" horiz-adv-x="391" 
d="M386 1h-92l-97 213h-2l-98 -213h-92l148 307l-133 278h92l83 -181h1l82 181h93l-132 -277z" />
    <glyph glyph-name="y" unicode="y" horiz-adv-x="376" 
d="M371 585l-144 -638q-10 -43 -22 -71.5t-29 -45.5t-40 -24t-55 -7q-13 0 -27.5 2t-28.5 5v77q20 -5 37 -5q18 0 32 3t24 12t17 25t12 41l8 39l-150 587h93l95 -393h1l84 393h93z" />
    <glyph glyph-name="z" unicode="z" horiz-adv-x="375" 
d="M350 0h-325v73l221 437h-197v75h291v-73l-222 -436h232v-76z" />
    <glyph glyph-name="braceleft" unicode="{" horiz-adv-x="370" 
d="M350 -188h-19t-17 1q-15 1 -28.5 2t-26.5 4q-24 5 -42.5 13.5t-33.5 24.5q-24 27 -31 65q-4 19 -4 48q-1 14 -1 30v34v97q0 54 -6 91t-18.5 60.5t-33 36.5t-49.5 20v41q28 6 48 18.5t33 35.5t19.5 59.5t6.5 91.5v111v54q1 13 2 24t3 22q4 20 11 36t20 30q15 16 33.5 25
t42.5 14q13 2 26.5 3t28.5 2q8 1 17 1h19v-27q-37 -4 -61 -15t-38.5 -31.5t-20 -52t-5.5 -75.5v-85q0 -55 -2.5 -99.5t-14.5 -77.5t-37 -54.5t-71 -28.5v-3q46 -8 71 -29t37 -53.5t14.5 -75.5t2.5 -93v-89q0 -44 5 -76t18.5 -53.5t38 -33.5t63.5 -16v-27z" />
    <glyph glyph-name="bar" unicode="|" horiz-adv-x="220" 
d="M140 -182h-60v1130h60v-1130z" />
    <glyph glyph-name="braceright" unicode="}" horiz-adv-x="370" 
d="M330 339q-28 -6 -48 -18.5t-33 -35.5t-19.5 -59.5t-6.5 -91.5v-111v-27.5t-1 -26.5q0 -13 -1 -24t-3 -22q-4 -20 -11 -36t-21 -30q-14 -16 -32.5 -24.5t-42.5 -13.5q-13 -3 -26.5 -4t-28.5 -2q-8 -1 -17 -1h-19v27q37 4 61 15t38 31.5t19.5 52t5.5 75.5v85q0 55 2.5 99.5
t14.5 77.5t37.5 54t71.5 29v3q-46 7 -71.5 28.5t-37.5 54t-14.5 75.5t-2.5 93v89q0 44 -4.5 76t-18 53.5t-38 33.5t-63.5 16v27h19t17 -1q15 -1 28.5 -2t26.5 -3q24 -5 42.5 -14t32.5 -25q14 -14 21 -29.5t11 -35.5q2 -11 3 -22.5t1 -25.5q1 -14 1 -30v-34v-97
q0 -55 5.5 -92t18.5 -60.5t33.5 -36.5t49.5 -19v-41z" />
    <glyph glyph-name="asciitilde" unicode="~" horiz-adv-x="653" 
d="M543 326q-23 -34 -53.5 -57.5t-64.5 -23.5q-24 0 -46.5 12t-47.5 29q-13 9 -25 17t-25 15q-13 6 -26.5 10.5t-28.5 4.5q-21 0 -36.5 -9t-28.5 -23q-8 -8 -14.5 -17.5t-12.5 -19.5l-24 52q23 39 49.5 63t64.5 24q26 0 51 -12t51 -29q13 -8 25 -16t25 -14q12 -7 24.5 -11.5
t26.5 -4.5q29 0 53 19.5t41 43.5z" />
    <glyph glyph-name="uni00A0" unicode="&#xa0;" horiz-adv-x="250" 
 />
    <glyph glyph-name="exclamdown" unicode="&#xa1;" horiz-adv-x="207" 
d="M147 743q0 -20 -14.5 -35.5t-34.5 -15.5h-9q-20 0 -34.5 15.5t-14.5 35.5v28q0 20 14.5 35t34.5 15h9q20 0 34.5 -15t14.5 -35v-28zM145 0h-102v265l27 356h48l27 -356v-265z" />
    <glyph glyph-name="cent" unicode="&#xa2;" horiz-adv-x="421" 
d="M240 676h-46v134h46v-134zM240 0h-46v124h46v-124zM396 546h-91q-1 18 -7.5 35t-17.5 30t-26.5 21t-34.5 8q-23 0 -39.5 -9t-27 -23.5t-16 -33t-5.5 -38.5v-257q0 -20 5.5 -38.5t16 -33t27 -23.5t38.5 -9q42 0 63 28t24 64h91q-2 -76 -46.5 -121.5t-131.5 -45.5
q-88 0 -133 47.5t-45 128.5v264q0 81 45 128.5t134 47.5q85 0 130 -46t47 -124z" />
    <glyph glyph-name="sterling" unicode="&#xa3;" horiz-adv-x="454" 
d="M404 611h-90v26q0 54 -25.5 79t-62.5 25t-64 -25.5t-27 -81.5q0 -10 2.5 -24.5t6 -32t8.5 -36t11 -36.5l25 -80h160v-66h-139l10.5 -38.5t7.5 -30.5t4 -28t1 -30q0 -45 -17.5 -82.5t-50.5 -58.5v-1h240v-90h-364v86q27 6 45.5 20t30.5 34.5t17.5 44.5t5.5 50
q0 29 -5.5 57.5t-18.5 66.5h-72v66h51l-26 83q-14 42 -19.5 72.5t-5.5 60.5v9q0 47 16.5 80.5t42.5 54.5t58.5 30.5t65.5 9.5q32 0 64 -9t57.5 -30t41 -54.5t15.5 -81.5v-39z" />
    <glyph glyph-name="currency" unicode="&#xa4;" horiz-adv-x="591" 
d="M541 599l-68 -74q17 -34 25.5 -63.5t8.5 -58.5q0 -30 -7.5 -60t-26.5 -64l67 -72l-60 -63l-70 72q-31 -19 -58.5 -27t-55.5 -8q-29 0 -57 7.5t-60 27.5l-68 -71l-60 63l68 73q-18 34 -26 63.5t-8 58.5t8 58.5t26 62.5l-69 75l61 63l68 -71q32 20 60 27.5t57 7.5
q28 0 55.5 -7.5t58.5 -27.5l70 71zM429 403q0 29 -10 55t-28 45.5t-42.5 30.5t-52.5 11t-52.5 -11t-42.5 -30.5t-28 -45t-10 -55.5t10 -55.5t28 -44t42.5 -29.5t52.5 -11t52.5 10.5t42.5 29.5t28 44.5t10 55.5z" />
    <glyph glyph-name="yen" unicode="&#xa5;" horiz-adv-x="519" 
d="M479 295h-171v-295h-99v295h-169v58h162l-34 94h-128v59h108l-105 304h100l116 -342h1l115 342h100l-106 -304h110v-59h-129l-34 -94h163v-58z" />
    <glyph glyph-name="brokenbar" unicode="&#xa6;" horiz-adv-x="231" 
d="M146 373h-61v401h61v-401zM146 -201h-61v402h61v-402z" />
    <glyph glyph-name="section" unicode="&#xa7;" horiz-adv-x="443" 
d="M418 298q0 -26 -5 -48.5t-16 -43.5t-27.5 -42t-39.5 -44q19 -24 30 -42.5t16.5 -37t7 -38.5t1.5 -46q0 -39 -12.5 -68.5t-35 -49.5t-52.5 -30t-65 -10q-50 0 -81.5 16t-49.5 46.5t-24.5 73.5t-6.5 97h87q-1 -7 -1 -14v-15q-1 -14 -0.5 -28t2.5 -27q2 -14 6.5 -27t13 -24
t21.5 -17.5t32 -6.5q21 0 34.5 7t21.5 18.5t11.5 26.5t3.5 31q0 26 -3 44t-11 33q-6 13 -20 28q-5 6 -12.5 13t-15.5 15q-15 14 -31.5 28.5t-33.5 30.5t-34 32.5t-33 33.5q-32 35 -51.5 71t-19.5 74q0 49 23 87.5t70 81.5q-28 33 -38 64t-10 68q0 91 44 128.5t119 37.5
q48 0 78.5 -13t47.5 -39.5t23.5 -66t6.5 -91.5h-85q0 6 0.5 12.5t0.5 13.5q1 20 -1 40t-9.5 36.5t-23 27t-41.5 10.5q-20 0 -33.5 -7t-21.5 -18.5t-11 -26t-3 -29.5q0 -28 13 -52t32 -45q9 -11 20 -21t22 -21t23.5 -21t24.5 -21q24 -22 46.5 -44t39 -45.5t26.5 -49.5t10 -56
zM342 267q0 14 -6.5 29.5t-17 30.5t-24 30t-26.5 28q-29 29 -56 53t-54 50q-16 -17 -26 -29t-15 -23t-9 -23.5t-4 -26.5t6.5 -29.5t17 -30.5t23.5 -30t26 -28q28 -28 58 -53.5t57 -48.5q24 24 37 49t13 52z" />
    <glyph glyph-name="dieresis" unicode="&#xa8;" horiz-adv-x="447" 
d="M344 700q0 -18 -12 -31t-29 -13h-10q-17 0 -29 13t-12 31v33q0 18 12 31.5t29 13.5h10q17 0 29 -13.5t12 -31.5v-33zM182 700q0 -18 -12 -31t-29 -13h-9q-17 0 -29.5 13t-12.5 31v33q0 18 12.5 31.5t29.5 13.5h9q17 0 29 -13.5t12 -31.5v-33z" />
    <glyph glyph-name="copyright" unicode="&#xa9;" horiz-adv-x="916" 
d="M866 404q0 -82 -30.5 -156t-85.5 -129.5t-130 -88.5t-163 -33q-81 0 -154.5 30t-129.5 84t-89.5 129t-33.5 166q0 87 32 161t87.5 129t129.5 86t158 31q87 0 162 -31.5t129.5 -86.5t86 -130t31.5 -161zM829 404q0 78 -28 146t-77.5 118.5t-117.5 79.5t-147 29t-147 -29.5
t-118 -80t-78.5 -118t-28.5 -143.5q0 -80 29.5 -148t80 -118t118 -78.5t143.5 -28.5q79 0 146.5 29.5t117.5 79.5t78.5 117.5t28.5 144.5zM635 542h-90q-3 37 -25.5 65.5t-61.5 28.5q-23 0 -39.5 -9t-27 -23t-16 -33t-5.5 -38v-258q0 -20 5.5 -38.5t16 -33t27 -23t39.5 -8.5
q42 0 63 27.5t23 63.5h91q-2 -76 -46.5 -121.5t-130.5 -45.5q-89 0 -133.5 47.5t-44.5 128.5v265q0 80 45 127.5t133 47.5q85 0 130 -46t47 -124z" />
    <glyph glyph-name="ordfeminine" unicode="&#xaa;" horiz-adv-x="266" 
d="M226 525h-45q-7 9 -9 19q-8 -11 -22.5 -18.5t-34.5 -7.5q-41 0 -60 19.5t-19 51.5v20q0 31 14.5 51.5t40.5 29.5l75 25v20q0 24 -9 38.5t-32 14.5q-20 0 -29.5 -13t-11.5 -34h-41v6q0 35 20.5 57t63.5 22q42 0 63 -23.5t21 -66.5v-137q0 -29 3 -44.5t12 -29.5zM236 453
h-206v36h206v-36zM166 602v77l-44 -14q-40 -14 -40 -55v-8q0 -21 9.5 -33.5t32.5 -12.5q21 0 31.5 12.5t10.5 33.5z" />
    <glyph glyph-name="guillemotleft" unicode="&#xab;" horiz-adv-x="491" 
d="M451 96l-178 169v80l178 169v-81l-137 -129l137 -127v-81zM218 96l-178 169v80l178 169v-81l-137 -129l137 -127v-81z" />
    <glyph glyph-name="logicalnot" unicode="&#xac;" horiz-adv-x="715" 
d="M715 3h-72v306h-593v74h665v-380z" />
    <glyph glyph-name="uni00AD" unicode="&#xad;" horiz-adv-x="337" 
d="M302 264h-267v86h267v-86z" />
    <glyph glyph-name="registered" unicode="&#xae;" horiz-adv-x="917" 
d="M867 404q0 -82 -30.5 -155.5t-85 -129.5t-130 -89t-164.5 -33q-80 0 -153.5 29.5t-129.5 83.5t-90 129t-34 166q0 88 33 163t88.5 129.5t129.5 85t156 30.5q86 0 161 -31.5t130.5 -86.5t87 -129.5t31.5 -161.5zM830 404q0 77 -28 145t-78 118.5t-118 80t-149 29.5
q-76 0 -143 -28.5t-117.5 -79t-80 -118.5t-29.5 -146q0 -79 29.5 -147t79.5 -118t117.5 -78.5t144.5 -28.5q81 0 149 30t117.5 81t77.5 118t28 142zM647 100h-75l-49 196q-12 49 -30.5 67t-53.5 18h-60v-281h-73v607h178q63 0 96.5 -36t33.5 -96v-49q0 -44 -23 -74.5
t-60 -39.5v-1q22 -9 37 -32t26 -67zM540 531v22q0 44 -17.5 67.5t-67.5 23.5h-76v-204h75q45 0 65.5 22t20.5 69z" />
    <glyph glyph-name="macron" unicode="&#xaf;" horiz-adv-x="669" 
d="M428 689h-303v69h303v-69z" />
    <glyph glyph-name="degree" unicode="&#xb0;" horiz-adv-x="334" 
d="M314 676q0 -31 -11.5 -58t-31.5 -47.5t-47 -32t-57 -11.5q-31 0 -57.5 11.5t-46.5 32t-31.5 47.5t-11.5 58t11.5 58.5t31.5 47.5t47 32t57 12t57 -12t47 -32.5t31.5 -47.5t11.5 -58zM250 678q0 18 -6.5 33.5t-18 27t-26.5 18t-32 6.5q-34 0 -58 -24.5t-24 -60.5
q0 -35 23.5 -59.5t58.5 -24.5q17 0 32 6.5t26.5 18t18 26.5t6.5 33z" />
    <glyph glyph-name="plusminus" unicode="&#xb1;" horiz-adv-x="578" 
d="M528 381h-203v-213h-73v213h-202v74h202v213h73v-213h203v-74zM528 38h-478v75h478v-75z" />
    <glyph glyph-name="uni00B2" unicode="&#xb2;" horiz-adv-x="381" 
d="M341 251h-301v73q0 32 2 52.5t9.5 37.5t22.5 33t41 39l101 90q25 22 34.5 43t9.5 52v19q0 19 -7 32.5t-17.5 21t-23 11t-22.5 3.5t-22.5 -3t-23 -11t-18 -21t-7.5 -33v-34h-77v52q0 32 13 54.5t34 36.5t47.5 20t53.5 6t53.5 -6t48 -20t34.5 -36.5t13 -55.5v-44
q0 -39 -16 -71t-51 -61l-86 -76q-18 -16 -31 -28t-21 -23.5t-12 -25t-4 -32.5v-29h223v-66z" />
    <glyph glyph-name="uni00B3" unicode="&#xb3;" horiz-adv-x="384" 
d="M344 358q0 -33 -12.5 -55.5t-33.5 -36.5t-48.5 -20.5t-57.5 -6.5q-41 0 -69.5 9t-47 24t-27 34t-8.5 39v79h79v-40q0 -34 19.5 -56t54.5 -22q36 0 54.5 22t18.5 56v57q0 30 -7 48t-25 26q-8 4 -17.5 5t-20.5 2h-38v53q22 0 41.5 2.5t33.5 11.5t22.5 25.5t8.5 45.5v17
q0 22 -7 37.5t-17.5 25t-23.5 14t-25 4.5q-14 0 -27 -4.5t-23.5 -14t-17 -25t-5.5 -37.5h-77q-3 80 38 113.5t114 33.5q37 0 65 -9.5t47 -25.5t28 -37t9 -43v-61q0 -19 -3 -34.5t-11 -27t-23 -19.5t-40 -12v-1q44 -10 61.5 -32t17.5 -71v-93z" />
    <glyph glyph-name="acute" unicode="&#xb4;" horiz-adv-x="461" 
d="M340 810l-96 -154h-64l59 154h101z" />
    <glyph glyph-name="mu" unicode="&#xb5;" horiz-adv-x="449" 
d="M399 7h-91v27h-1q-14 -23 -36.5 -32.5t-45.5 -9.5q-24 0 -47 11t-36 30h-1v-223h-91v776h90v-39.5t0.5 -57.5t0.5 -68v-71v-179q0 -20 5 -39t15.5 -33.5t26.5 -23.5t37 -9q20 0 35.5 9t26 23.5t16 33t5.5 38.5v416h91v-579z" />
    <glyph glyph-name="paragraph" unicode="&#xb6;" horiz-adv-x="558" 
d="M478 757h-39v-947h-56v947h-66v-947h-56v530q-38 7 -71 26t-57.5 48.5t-38.5 69t-14 89.5q0 56 17 100t48.5 74.5t76 46.5t98.5 16h158v-53z" />
    <glyph glyph-name="periodcentered" unicode="&#xb7;" horiz-adv-x="212" 
d="M162 319q0 -21 -15 -36.5t-36 -15.5h-10q-21 0 -36 15.5t-15 36.5v29q0 21 15 37t36 16h10q21 0 36 -16t15 -37v-29z" />
    <glyph glyph-name="cedilla" unicode="&#xb8;" horiz-adv-x="660" 
d="M354 -150q0 -28 -16.5 -44t-47.5 -16q-59 0 -63 62h36q2 -10 6.5 -16.5t13.5 -6.5q13 0 18 11t5 26v21q0 14 -5 23.5t-16 9.5q-8 0 -12 -6t-6 -14h-37l24 116h42l-15 -68q10 5 20 5q20 0 36.5 -12.5t16.5 -44.5v-46z" />
    <glyph glyph-name="uni00B9" unicode="&#xb9;" horiz-adv-x="219" 
d="M179 250h-78v441h-61v50q32 2 49 17t19 51h71v-559z" />
    <glyph glyph-name="ordmasculine" unicode="&#xba;" horiz-adv-x="248" 
d="M213 606q0 -40 -22 -64t-67 -24t-67 23.5t-22 64.5v132q0 41 22.5 64.5t66.5 23.5t66.5 -24t22.5 -64v-132zM218 453h-188v36h188v-36zM168 608v128q0 19 -11.5 35.5t-32.5 16.5q-23 0 -33.5 -16.5t-10.5 -36.5v-127q0 -20 10.5 -36t33.5 -16t33.5 16t10.5 36z" />
    <glyph glyph-name="guillemotright" unicode="&#xbb;" horiz-adv-x="491" 
d="M451 265l-178 -169v81l137 127l-137 129v81l178 -169v-80zM218 265l-178 -169v81l137 127l-137 129v81l178 -169v-80z" />
    <glyph glyph-name="onequarter" unicode="&#xbc;" horiz-adv-x="738" 
d="M698 113l-47 1v-113h-78v112h-225v63l207 384h96v-380h47v-67zM513 846l-316 -898l-56 20l316 899zM573 179v291l-152 -290zM179 250h-78v441h-61v50q32 2 49 17t19 51h71v-559z" />
    <glyph glyph-name="onehalf" unicode="&#xbd;" horiz-adv-x="787" 
d="M747 1h-301v74q0 32 2 51.5t9.5 35.5t22.5 31.5t41 38.5l101 90q25 22 34.5 42.5t9.5 52.5v19q0 19 -7 32.5t-17.5 21t-23 11t-22.5 3.5t-22.5 -3.5t-23 -11t-18 -21t-7.5 -32.5v-35h-77v52q0 33 13 55.5t34 36.5t47.5 20t53.5 6t53.5 -6t48 -20t34.5 -36.5t13 -55.5v-45
q0 -39 -16 -70.5t-51 -61.5l-86 -75q-18 -16 -31 -28t-21 -24t-12 -25.5t-4 -32.5v-24h223v-66zM513 846l-316 -898l-56 20l316 899zM179 250h-78v441h-61v50q32 2 49 17t19 51h71v-559z" />
    <glyph glyph-name="threequarters" unicode="&#xbe;" horiz-adv-x="865" 
d="M826 113l-48 1v-113h-78v112h-225v63l207 384h96v-380h48v-67zM643 846l-315 -898l-56 20l315 899zM344 359q0 -33 -12.5 -55.5t-33.5 -36.5t-48.5 -20.5t-57.5 -6.5q-41 0 -69.5 9t-47 24t-27 34t-8.5 39v79h79v-40q0 -34 19.5 -56t54.5 -22q36 0 54.5 22t18.5 56v57
q0 30 -7 48.5t-25 26.5q-8 4 -17.5 5t-20.5 2h-38v53q22 0 41.5 2.5t33.5 11.5t22.5 25.5t8.5 45.5v15q0 22 -7 37.5t-17.5 25t-23.5 14t-25 4.5q-14 0 -27 -4.5t-23.5 -14t-17 -25t-5.5 -37.5h-77q-3 80 38 113.5t114 33.5q37 0 65 -9.5t47 -25.5t28 -37t9 -43v-59
q0 -19 -3 -34.5t-11 -27t-23 -19.5t-40 -12v-1q44 -10 61.5 -32.5t17.5 -71.5v-93zM700 179v291l-152 -290z" />
    <glyph glyph-name="questiondown" unicode="&#xbf;" horiz-adv-x="440" 
d="M297 743q0 -20 -14.5 -35.5t-34.5 -15.5h-10q-20 0 -34.5 15.5t-14.5 35.5v28q0 20 14.5 35t34.5 15h10q20 0 34.5 -15t14.5 -35v-28zM390 155q0 -84 -49 -127t-131 -43t-131 43t-49 127v33q0 29 6.5 51.5t17.5 44.5q11 23 26.5 45t32.5 49q7 11 16 24.5l17 25.5l18 27
q23 33 28 60.5t5 59.5v46h92v-62q0 -23 -1.5 -38.5t-5.5 -29t-12 -27.5t-21 -34l-73 -111q-5 -8 -9.5 -15.5t-9.5 -15.5t-9.5 -15.5t-8.5 -15.5q-8 -17 -13 -35.5t-5 -41.5v-17q0 -46 27 -69.5t62 -23.5t62 23t27 71v77h91v-86z" />
    <glyph glyph-name="Agrave" unicode="&#xc0;" horiz-adv-x="510" 
d="M500 0h-100l-33 151h-223l-34 -151h-100l178 810h134zM350 226l-94 443h-2l-94 -443h190zM297 875h-63l-96 154h101z" />
    <glyph glyph-name="Aacute" unicode="&#xc1;" horiz-adv-x="510" 
d="M500 0h-100l-33 151h-223l-34 -151h-100l178 810h134zM350 226l-94 443h-2l-94 -443h190zM380 1030l-96 -154h-64l59 154h101z" />
    <glyph glyph-name="Acircumflex" unicode="&#xc2;" horiz-adv-x="510" 
d="M500 0h-100l-33 151h-223l-34 -151h-100l178 810h134zM350 226l-94 443h-2l-94 -443h190zM385 875h-59l-72 100l-71 -100h-57l77 155h104z" />
    <glyph glyph-name="Atilde" unicode="&#xc3;" horiz-adv-x="510" 
d="M500 0h-100l-33 151h-223l-34 -151h-100l178 810h134zM350 226l-94 443h-2l-94 -443h190zM404 987q0 -51 -17 -82t-50 -31q-16 0 -31.5 6.5t-32.5 15.5q-18 10 -36.5 18t-38.5 8q-18 0 -27.5 -11.5t-14.5 -27.5h-39q1 52 22 84.5t56 32.5q16 0 30 -6.5t31 -15.5
q16 -9 33 -17t35 -8t28 12.5t15 27.5h37v-6z" />
    <glyph glyph-name="Adieresis" unicode="&#xc4;" horiz-adv-x="510" 
d="M500 0h-100l-33 151h-223l-34 -151h-100l178 810h134zM350 226l-94 443h-2l-94 -443h190zM381 920q0 -18 -12 -31t-29 -13h-10q-17 0 -29 13t-12 31v33q0 18 12 31.5t29 13.5h10q17 0 29 -13.5t12 -31.5v-33zM219 920q0 -18 -12 -31t-29 -13h-9q-17 0 -29.5 13t-12.5 31
v33q0 18 12.5 31.5t29.5 13.5h9q17 0 29 -13.5t12 -31.5v-33z" />
    <glyph glyph-name="Aring" unicode="&#xc5;" horiz-adv-x="510" 
d="M500 0h-100l-33 151h-223l-34 -151h-100l178 810h134zM350 226l-94 443h-2l-94 -443h190zM348 953q0 -20 -7.5 -37t-20 -29.5t-30 -20t-36.5 -7.5q-20 0 -37 7.5t-29.5 20t-20 29.5t-7.5 37q0 19 7.5 36.5t20 30t29.5 20t37 7.5q19 0 36.5 -7.5t30 -20t20 -30t7.5 -36.5z
M295 953q0 17 -12 29t-29 12t-29 -12t-12 -29t12 -29t29 -12t29 12t12 29z" />
    <glyph glyph-name="AE" unicode="&#xc6;" horiz-adv-x="767" 
d="M747 0h-373v151h-203l-58 -151h-103l308 810h428v-84v-4l-274 1v-268h237v-82h-237v-286h275v-3v-84zM374 685h-2l-172 -459h174v459z" />
    <glyph glyph-name="Ccedilla" unicode="&#xc7;" horiz-adv-x="501" 
d="M476 176q0 -36 -10 -70.5t-35 -61.5t-66 -43t-102 -16t-102 17t-65.5 44t-35 61t-10.5 69v447q0 27 6.5 62.5t28.5 66.5t64.5 52.5t113.5 21.5q72 0 114 -21.5t64 -53t28.5 -66t6.5 -61.5v-27h-98v10q0 21 -4.5 44.5t-17 43.5t-34.5 33t-58 13q-40 0 -63 -15t-34.5 -36
t-14.5 -45t-3 -42v-408q0 -20 5 -42t18 -40.5t35.5 -30.5t56.5 -12q33 0 55 12.5t35 32t18.5 41.5t5.5 42v4h98v-26zM352 -150q0 -28 -16.5 -44t-47.5 -16q-59 0 -63 62h36q2 -10 6.5 -16.5t13.5 -6.5q13 0 18 11t5 26v21q0 14 -5 23.5t-16 9.5q-8 0 -12 -6t-6 -14h-37
l24 116h42l-15 -68q10 5 20 5q20 0 36.5 -12.5t16.5 -44.5v-46z" />
    <glyph glyph-name="Egrave" unicode="&#xc8;" horiz-adv-x="463" 
d="M443 0h-383v810h381v-88l-283 1v-268h246v-82h-246v-286h285v-87zM302 875h-63l-96 154h101z" />
    <glyph glyph-name="Eacute" unicode="&#xc9;" horiz-adv-x="463" 
d="M443 0h-383v810h381v-88l-283 1v-268h246v-82h-246v-286h285v-87zM373 1029l-96 -154h-64l59 154h101z" />
    <glyph glyph-name="Ecircumflex" unicode="&#xca;" horiz-adv-x="463" 
d="M443 0h-383v810h381v-88l-283 1v-268h246v-82h-246v-286h285v-87zM384 874h-59l-72 100l-71 -100h-57l77 155h104z" />
    <glyph glyph-name="Edieresis" unicode="&#xcb;" horiz-adv-x="463" 
d="M443 0h-383v810h381v-88l-283 1v-268h246v-82h-246v-286h285v-87zM382 921q0 -18 -12 -31t-29 -13h-10q-17 0 -29 13t-12 31v33q0 18 12 31.5t29 13.5h10q17 0 29 -13.5t12 -31.5v-33zM220 921q0 -18 -12 -31t-29 -13h-9q-17 0 -29.5 13t-12.5 31v33q0 18 12.5 31.5
t29.5 13.5h9q17 0 29 -13.5t12 -31.5v-33z" />
    <glyph glyph-name="Igrave" unicode="&#xcc;" horiz-adv-x="250" 
d="M190 0h-130v810h130v-810zM185 876h-63l-96 154h101z" />
    <glyph glyph-name="Iacute" unicode="&#xcd;" horiz-adv-x="250" 
d="M190 0h-130v810h130v-810zM226 1031l-96 -154h-64l59 154h101z" />
    <glyph glyph-name="Icircumflex" unicode="&#xce;" horiz-adv-x="250" 
d="M190 0h-130v810h130v-810zM255 875h-59l-72 100l-71 -100h-57l77 155h104z" />
    <glyph glyph-name="Idieresis" unicode="&#xcf;" horiz-adv-x="250" 
d="M190 0h-130v810h130v-810zM253 920q0 -18 -12 -31t-29 -13h-10q-17 0 -29 13t-12 31v33q0 18 12 31.5t29 13.5h10q17 0 29 -13.5t12 -31.5v-33zM91 920q0 -18 -12 -31t-29 -13h-9q-17 0 -29.5 13t-12.5 31v33q0 18 12.5 31.5t29.5 13.5h9q17 0 29 -13.5t12 -31.5v-33z
" />
    <glyph glyph-name="Eth" unicode="&#xd0;" horiz-adv-x="538" 
d="M488 203q0 -55 -9 -93.5t-30.5 -63t-58.5 -35.5t-93 -11h-237v375h-60v64h60v371h238q47 0 82.5 -9t59.5 -31.5t36 -61t12 -96.5v-409zM391 209v396q0 37 -8.5 61t-24.5 37t-40 18t-55 5h-105v-287h95v-64h-95v-291h37q17 0 33.5 -0.5t33.5 -0.5q16 0 32 2t30 7
q32 11 49.5 38t17.5 79z" />
    <glyph glyph-name="Ntilde" unicode="&#xd1;" horiz-adv-x="564" 
d="M504 -1h-100l-245 597h-1v-596h-98v810h100l245 -597h1v597h98v-811zM435 988q0 -51 -17 -82t-50 -31q-16 0 -31.5 6.5t-32.5 15.5q-18 10 -36.5 18t-38.5 8q-18 0 -27.5 -11.5t-14.5 -27.5h-39q1 52 22 84.5t56 32.5q16 0 30 -6.5t31 -15.5q16 -9 33 -17t35 -8t28 12.5
t15 27.5h37v-6z" />
    <glyph glyph-name="Ograve" unicode="&#xd2;" 
d="M486 182q0 -51 -16.5 -88t-46 -61.5t-69.5 -36t-86 -11.5t-85.5 11.5t-69 36t-46.5 61.5t-17 88v445q0 52 16 89.5t45 62t69.5 36t88.5 11.5t88 -12t68.5 -36.5t44.5 -62t16 -88.5v-445zM388 209v392q0 29 -6.5 54.5t-20.5 44.5t-37 30t-56 11t-55.5 -10.5t-37 -29.5
t-20.5 -44.5t-6 -55.5v-392q0 -29 6.5 -54.5t20.5 -44.5t37 -29.5t55 -10.5t54.5 10.5t37 29.5t21.5 44.5t7 54.5zM305 875h-63l-96 154h101z" />
    <glyph glyph-name="Oacute" unicode="&#xd3;" 
d="M486 182q0 -51 -16.5 -88t-46 -61.5t-69.5 -36t-86 -11.5t-85.5 11.5t-69 36t-46.5 61.5t-17 88v445q0 52 16 89.5t45 62t69.5 36t88.5 11.5t88 -12t68.5 -36.5t44.5 -62t16 -88.5v-445zM388 209v392q0 29 -6.5 54.5t-20.5 44.5t-37 30t-56 11t-55.5 -10.5t-37 -29.5
t-20.5 -44.5t-6 -55.5v-392q0 -29 6.5 -54.5t20.5 -44.5t37 -29.5t55 -10.5t54.5 10.5t37 29.5t21.5 44.5t7 54.5zM394 1032l-96 -154h-64l59 154h101z" />
    <glyph glyph-name="Ocircumflex" unicode="&#xd4;" 
d="M486 182q0 -51 -16.5 -88t-46 -61.5t-69.5 -36t-86 -11.5t-85.5 11.5t-69 36t-46.5 61.5t-17 88v445q0 52 16 89.5t45 62t69.5 36t88.5 11.5t88 -12t68.5 -36.5t44.5 -62t16 -88.5v-445zM388 209v392q0 29 -6.5 54.5t-20.5 44.5t-37 30t-56 11t-55.5 -10.5t-37 -29.5
t-20.5 -44.5t-6 -55.5v-392q0 -29 6.5 -54.5t20.5 -44.5t37 -29.5t55 -10.5t54.5 10.5t37 29.5t21.5 44.5t7 54.5zM400 874h-59l-72 100l-71 -100h-57l77 155h104z" />
    <glyph glyph-name="Otilde" unicode="&#xd5;" 
d="M486 182q0 -51 -16.5 -88t-46 -61.5t-69.5 -36t-86 -11.5t-85.5 11.5t-69 36t-46.5 61.5t-17 88v445q0 52 16 89.5t45 62t69.5 36t88.5 11.5t88 -12t68.5 -36.5t44.5 -62t16 -88.5v-445zM388 209v392q0 29 -6.5 54.5t-20.5 44.5t-37 30t-56 11t-55.5 -10.5t-37 -29.5
t-20.5 -44.5t-6 -55.5v-392q0 -29 6.5 -54.5t20.5 -44.5t37 -29.5t55 -10.5t54.5 10.5t37 29.5t21.5 44.5t7 54.5zM407 986q0 -51 -17 -82t-50 -31q-16 0 -31.5 6.5t-32.5 15.5q-18 10 -36.5 18t-38.5 8q-18 0 -27.5 -11.5t-14.5 -27.5h-39q1 52 22 84.5t56 32.5
q16 0 30 -6.5t31 -15.5q16 -9 33 -17t35 -8t28 12.5t15 27.5h37v-6z" />
    <glyph glyph-name="Odieresis" unicode="&#xd6;" 
d="M486 182q0 -51 -16.5 -88t-46 -61.5t-69.5 -36t-86 -11.5t-85.5 11.5t-69 36t-46.5 61.5t-17 88v445q0 52 16 89.5t45 62t69.5 36t88.5 11.5t88 -12t68.5 -36.5t44.5 -62t16 -88.5v-445zM388 209v392q0 29 -6.5 54.5t-20.5 44.5t-37 30t-56 11t-55.5 -10.5t-37 -29.5
t-20.5 -44.5t-6 -55.5v-392q0 -29 6.5 -54.5t20.5 -44.5t37 -29.5t55 -10.5t54.5 10.5t37 29.5t21.5 44.5t7 54.5zM393 922q0 -18 -12 -31t-29 -13h-10q-17 0 -29 13t-12 31v33q0 18 12 31.5t29 13.5h10q17 0 29 -13.5t12 -31.5v-33zM231 922q0 -18 -12 -31t-29 -13h-9
q-17 0 -29.5 13t-12.5 31v33q0 18 12.5 31.5t29.5 13.5h9q17 0 29 -13.5t12 -31.5v-33z" />
    <glyph glyph-name="multiply" unicode="&#xd7;" horiz-adv-x="567" 
d="M507 154l-51 -52l-172 179l-174 -179l-50 52l174 182l-174 180l50 51l174 -180l173 180l50 -51l-172 -180z" />
    <glyph glyph-name="Oslash" unicode="&#xd8;" 
d="M497 830l-41 -86q30 -45 30 -117v-445q0 -51 -16.5 -88t-46 -61.5t-69.5 -36t-86 -11.5t-85.5 11.5t-69.5 35.5l-34 -71l-41 20l43 87q-31 46 -31 114v445q0 52 16 89.5t45 62t69.5 36t88.5 11.5t86.5 -11.5t67.5 -34.5l33 70zM374 678q-13 29 -38.5 46t-67.5 17
q-33 0 -55.5 -10.5t-37 -29.5t-20.5 -44.5t-6 -55.5v-391zM388 209v392v2l-226 -469q13 -29 38.5 -46.5t67.5 -17.5q32 0 54.5 10.5t37 29.5t21.5 44.5t7 54.5z" />
    <glyph glyph-name="Ugrave" unicode="&#xd9;" 
d="M486 182q0 -51 -16.5 -88t-46 -61.5t-69.5 -36t-86 -11.5t-85.5 11.5t-69 36t-46.5 61.5t-17 88v628h98v-601q0 -29 7 -54.5t22 -44.5t37.5 -29.5t53.5 -10.5t54 10.5t38 29.5t22 44.5t7 54.5l-1 601h98v-628zM308 875h-63l-96 154h101z" />
    <glyph glyph-name="Uacute" unicode="&#xda;" 
d="M486 182q0 -51 -16.5 -88t-46 -61.5t-69.5 -36t-86 -11.5t-85.5 11.5t-69 36t-46.5 61.5t-17 88v628h98v-601q0 -29 7 -54.5t22 -44.5t37.5 -29.5t53.5 -10.5t54 10.5t38 29.5t22 44.5t7 54.5l-1 601h98v-628zM384 1030l-96 -154h-64l59 154h101z" />
    <glyph glyph-name="Ucircumflex" unicode="&#xdb;" 
d="M486 182q0 -51 -16.5 -88t-46 -61.5t-69.5 -36t-86 -11.5t-85.5 11.5t-69 36t-46.5 61.5t-17 88v628h98v-601q0 -29 7 -54.5t22 -44.5t37.5 -29.5t53.5 -10.5t54 10.5t38 29.5t22 44.5t7 54.5l-1 601h98v-628zM397 875h-59l-72 100l-71 -100h-57l77 155h104z" />
    <glyph glyph-name="Udieresis" unicode="&#xdc;" 
d="M486 182q0 -51 -16.5 -88t-46 -61.5t-69.5 -36t-86 -11.5t-85.5 11.5t-69 36t-46.5 61.5t-17 88v628h98v-601q0 -29 7 -54.5t22 -44.5t37.5 -29.5t53.5 -10.5t54 10.5t38 29.5t22 44.5t7 54.5l-1 601h98v-628zM393 920q0 -18 -12 -31t-29 -13h-10q-17 0 -29 13t-12 31v33
q0 18 12 31.5t29 13.5h10q17 0 29 -13.5t12 -31.5v-33zM231 920q0 -18 -12 -31t-29 -13h-9q-17 0 -29.5 13t-12.5 31v33q0 18 12.5 31.5t29.5 13.5h9q17 0 29 -13.5t12 -31.5v-33z" />
    <glyph glyph-name="Yacute" unicode="&#xdd;" horiz-adv-x="486" 
d="M476 810l-184 -491v-319h-98v319l-184 491h100l133 -361h1l132 361h100zM379 1029l-96 -154h-64l59 154h101z" />
    <glyph glyph-name="Thorn" unicode="&#xde;" horiz-adv-x="496" 
d="M471 405q0 -43 -8.5 -80t-28.5 -64t-53.5 -42t-82.5 -15h-140v-204h-98v810h98v-147h141q83 0 127.5 -50.5t44.5 -134.5v-73zM373 409v48q0 30 -5 52.5t-18 38t-35 23.5t-56 8h-101v-291h100q60 0 87.5 29.5t27.5 91.5z" />
    <glyph glyph-name="germandbls" unicode="&#xdf;" horiz-adv-x="441" 
d="M401 161q0 -49 -7 -82t-22 -53t-39 -28.5t-57 -8.5q-17 0 -41.5 2t-41.5 6v76q8 -2 22 -3t21 -1q31 0 47.5 11t22.5 34q2 11 3 25t2 25q0 11 -0.5 21t-0.5 19v62q0 36 -5 61t-17.5 40.5t-35 23t-57.5 7.5v73q33 -3 53.5 4t32 22t15.5 38t4 53v41q0 111 -83 111
q-44 0 -60 -19t-16 -69v-652h-91v660q0 46 10 76t30.5 48t52.5 25t76 7q46 0 78.5 -12t53.5 -34t31 -53.5t10 -69.5v-69q0 -60 -22.5 -93.5t-71.5 -45.5q55 -12 79 -47.5t24 -105.5v-125z" />
    <glyph glyph-name="agrave" unicode="&#xe0;" horiz-adv-x="426" 
d="M410 0h-91q-5 7 -10 18t-7 20h-1q-15 -23 -43.5 -38t-70.5 -15q-80 0 -118.5 39.5t-38.5 101.5v41q0 62 29 102.5t80 57.5l151 50v41q0 49 -18.5 78t-62.5 29q-41 0 -60.5 -26t-22.5 -68h-82v12q0 34 10 63t31 50t52.5 33t74.5 12q85 0 126.5 -47t41.5 -133v-274
q0 -30 1.5 -51.5t5 -38.5t9 -30.5t14.5 -26.5zM289 152v155l-88 -29q-38 -12 -59 -40t-21 -70v-16q0 -41 19.5 -66.5t64.5 -25.5q43 0 63.5 25t20.5 67zM247 656h-63l-96 154h101z" />
    <glyph glyph-name="aacute" unicode="&#xe1;" horiz-adv-x="426" 
d="M410 0h-91q-5 7 -10 18t-7 20h-1q-15 -23 -43.5 -38t-70.5 -15q-80 0 -118.5 39.5t-38.5 101.5v41q0 62 29 102.5t80 57.5l151 50v41q0 49 -18.5 78t-62.5 29q-41 0 -60.5 -26t-22.5 -68h-82v12q0 34 10 63t31 50t52.5 33t74.5 12q85 0 126.5 -47t41.5 -133v-274
q0 -30 1.5 -51.5t5 -38.5t9 -30.5t14.5 -26.5zM289 152v155l-88 -29q-38 -12 -59 -40t-21 -70v-16q0 -41 19.5 -66.5t64.5 -25.5q43 0 63.5 25t20.5 67zM340 810l-96 -154h-64l59 154h101z" />
    <glyph glyph-name="acircumflex" unicode="&#xe2;" horiz-adv-x="426" 
d="M410 0h-91q-5 7 -10 18t-7 20h-1q-15 -23 -43.5 -38t-70.5 -15q-80 0 -118.5 39.5t-38.5 101.5v41q0 62 29 102.5t80 57.5l151 50v41q0 49 -18.5 78t-62.5 29q-41 0 -60.5 -26t-22.5 -68h-82v12q0 34 10 63t31 50t52.5 33t74.5 12q85 0 126.5 -47t41.5 -133v-274
q0 -30 1.5 -51.5t5 -38.5t9 -30.5t14.5 -26.5zM289 152v155l-88 -29q-38 -12 -59 -40t-21 -70v-16q0 -41 19.5 -66.5t64.5 -25.5q43 0 63.5 25t20.5 67zM344 655h-59l-72 100l-71 -100h-57l77 155h104z" />
    <glyph glyph-name="atilde" unicode="&#xe3;" horiz-adv-x="426" 
d="M410 0h-91q-5 7 -10 18t-7 20h-1q-15 -23 -43.5 -38t-70.5 -15q-80 0 -118.5 39.5t-38.5 101.5v41q0 62 29 102.5t80 57.5l151 50v41q0 49 -18.5 78t-62.5 29q-41 0 -60.5 -26t-22.5 -68h-82v12q0 34 10 63t31 50t52.5 33t74.5 12q85 0 126.5 -47t41.5 -133v-274
q0 -30 1.5 -51.5t5 -38.5t9 -30.5t14.5 -26.5zM289 152v155l-88 -29q-38 -12 -59 -40t-21 -70v-16q0 -41 19.5 -66.5t64.5 -25.5q43 0 63.5 25t20.5 67zM359 768q0 -51 -17 -82t-50 -31q-16 0 -31.5 6.5t-32.5 15.5q-18 10 -36.5 18t-38.5 8q-18 0 -27.5 -11.5t-14.5 -27.5
h-39q1 52 22 84.5t56 32.5q16 0 30 -6.5t31 -15.5q16 -9 33 -17t35 -8t28 12.5t15 27.5h37v-6z" />
    <glyph glyph-name="adieresis" unicode="&#xe4;" horiz-adv-x="426" 
d="M410 0h-91q-5 7 -10 18t-7 20h-1q-15 -23 -43.5 -38t-70.5 -15q-80 0 -118.5 39.5t-38.5 101.5v41q0 62 29 102.5t80 57.5l151 50v41q0 49 -18.5 78t-62.5 29q-41 0 -60.5 -26t-22.5 -68h-82v12q0 34 10 63t31 50t52.5 33t74.5 12q85 0 126.5 -47t41.5 -133v-274
q0 -30 1.5 -51.5t5 -38.5t9 -30.5t14.5 -26.5zM289 152v155l-88 -29q-38 -12 -59 -40t-21 -70v-16q0 -41 19.5 -66.5t64.5 -25.5q43 0 63.5 25t20.5 67zM335 700q0 -18 -12 -31t-29 -13h-10q-17 0 -29 13t-12 31v33q0 18 12 31.5t29 13.5h10q17 0 29 -13.5t12 -31.5v-33z
M173 700q0 -18 -12 -31t-29 -13h-9q-17 0 -29.5 13t-12.5 31v33q0 18 12.5 31.5t29.5 13.5h9q17 0 29 -13.5t12 -31.5v-33z" />
    <glyph glyph-name="aring" unicode="&#xe5;" horiz-adv-x="426" 
d="M410 0h-91q-5 7 -10 18t-7 20h-1q-15 -23 -43.5 -38t-70.5 -15q-80 0 -118.5 39.5t-38.5 101.5v41q0 62 29 102.5t80 57.5l151 50v41q0 49 -18.5 78t-62.5 29q-41 0 -60.5 -26t-22.5 -68h-82v12q0 34 10 63t31 50t52.5 33t74.5 12q85 0 126.5 -47t41.5 -133v-274
q0 -30 1.5 -51.5t5 -38.5t9 -30.5t14.5 -26.5zM289 152v155l-88 -29q-38 -12 -59 -40t-21 -70v-16q0 -41 19.5 -66.5t64.5 -25.5q43 0 63.5 25t20.5 67zM307 744q0 -20 -7.5 -37t-20 -29.5t-30 -20t-36.5 -7.5q-20 0 -37 7.5t-29.5 20t-20 29.5t-7.5 37q0 19 7.5 36.5t20 30
t29.5 20t37 7.5q19 0 36.5 -7.5t30 -20t20 -30t7.5 -36.5zM254 744q0 17 -12 29t-29 12t-29 -12t-12 -29t12 -29t29 -12t29 12t12 29z" />
    <glyph glyph-name="ae" unicode="&#xe6;" horiz-adv-x="689" 
d="M649 428v-152h-269v-83v-26q0 -45 23 -75.5t67 -30.5q40 0 62 26t26 65h90v-10q0 -35 -13 -64t-36.5 -49.5t-55.5 -32t-70 -11.5q-53 0 -89.5 15.5t-61.5 46.5h-1q-19 -28 -55 -45t-79 -17q-39 0 -68.5 11.5t-49 30.5t-29.5 44.5t-10 54.5v41q0 62 29 102.5t80 57.5
l151 49v51q0 42 -18.5 70t-62.5 28q-41 0 -60.5 -26t-22.5 -68h-82v12q0 72 41 115t127 43q39 0 69 -11t57 -35q29 23 60.5 34.5t71.5 11.5q46 0 79.5 -13.5t55.5 -37t33 -55t11 -67.5zM559 348v74q0 19 -6 37.5t-17 33t-27.5 23.5t-38.5 9t-38.5 -9t-28 -23.5t-17 -33
t-5.5 -37.5v-74h178zM289 151v155l-88 -29q-38 -12 -59 -39.5t-21 -69.5v-17q0 -41 19.5 -66t64.5 -25q43 0 63.5 24.5t20.5 66.5z" />
    <glyph glyph-name="ccedilla" unicode="&#xe7;" horiz-adv-x="421" 
d="M396 431h-91q-1 18 -7.5 35t-17.5 30t-26.5 21t-34.5 8q-23 0 -39.5 -9t-27 -23.5t-16 -33t-5.5 -38.5v-257q0 -20 5.5 -38.5t16 -33t27 -23.5t38.5 -9q42 0 63 28t24 64h91q-2 -76 -46.5 -121.5t-131.5 -45.5q-88 0 -133 47.5t-45 128.5v264q0 81 45 128.5t134 47.5
q85 0 130 -46t47 -124zM295 -150q0 -28 -16.5 -44t-47.5 -16q-59 0 -63 62h36q2 -10 6.5 -16.5t13.5 -6.5q13 0 18 11t5 26v21q0 14 -5 23.5t-16 9.5q-8 0 -12 -6t-6 -14h-37l24 116h42l-15 -68q10 5 20 5q20 0 36.5 -12.5t16.5 -44.5v-46z" />
    <glyph glyph-name="egrave" unicode="&#xe8;" horiz-adv-x="439" 
d="M399 276h-269v-114q0 -45 23 -73t67 -28q40 0 61.5 24.5t26.5 66.5h90v-10q0 -35 -13 -64t-36.5 -49.5t-55.5 -32t-70 -11.5q-94 0 -138.5 47t-44.5 133v262q0 36 11 68t33.5 55.5t56 37t79.5 13.5t79.5 -13.5t55.5 -37t33 -55t11 -67.5v-152zM309 348v80
q0 40 -22.5 68.5t-66.5 28.5q-45 0 -67 -28.5t-22 -68.5v-80h178zM258 656h-63l-96 154h101z" />
    <glyph glyph-name="eacute" unicode="&#xe9;" horiz-adv-x="439" 
d="M399 276h-269v-114q0 -45 23 -73t67 -28q40 0 61.5 24.5t26.5 66.5h90v-10q0 -35 -13 -64t-36.5 -49.5t-55.5 -32t-70 -11.5q-94 0 -138.5 47t-44.5 133v262q0 36 11 68t33.5 55.5t56 37t79.5 13.5t79.5 -13.5t55.5 -37t33 -55t11 -67.5v-152zM309 348v80
q0 40 -22.5 68.5t-66.5 28.5q-45 0 -67 -28.5t-22 -68.5v-80h178zM340 811l-96 -154h-64l59 154h101z" />
    <glyph glyph-name="ecircumflex" unicode="&#xea;" horiz-adv-x="439" 
d="M399 276h-269v-114q0 -45 23 -73t67 -28q40 0 61.5 24.5t26.5 66.5h90v-10q0 -35 -13 -64t-36.5 -49.5t-55.5 -32t-70 -11.5q-94 0 -138.5 47t-44.5 133v262q0 36 11 68t33.5 55.5t56 37t79.5 13.5t79.5 -13.5t55.5 -37t33 -55t11 -67.5v-152zM309 348v80
q0 40 -22.5 68.5t-66.5 28.5q-45 0 -67 -28.5t-22 -68.5v-80h178zM357 655h-59l-72 100l-71 -100h-57l77 155h104z" />
    <glyph glyph-name="edieresis" unicode="&#xeb;" horiz-adv-x="439" 
d="M399 276h-269v-114q0 -45 23 -73t67 -28q40 0 61.5 24.5t26.5 66.5h90v-10q0 -35 -13 -64t-36.5 -49.5t-55.5 -32t-70 -11.5q-94 0 -138.5 47t-44.5 133v262q0 36 11 68t33.5 55.5t56 37t79.5 13.5t79.5 -13.5t55.5 -37t33 -55t11 -67.5v-152zM309 348v80
q0 40 -22.5 68.5t-66.5 28.5q-45 0 -67 -28.5t-22 -68.5v-80h178zM347 701q0 -18 -12 -31t-29 -13h-10q-17 0 -29 13t-12 31v33q0 18 12 31.5t29 13.5h10q17 0 29 -13.5t12 -31.5v-33zM185 701q0 -18 -12 -31t-29 -13h-9q-17 0 -29.5 13t-12.5 31v33q0 18 12.5 31.5
t29.5 13.5h9q17 0 29 -13.5t12 -31.5v-33z" />
    <glyph glyph-name="igrave" unicode="&#xec;" horiz-adv-x="191" 
d="M141 0h-91v586h91v-586zM163 656h-63l-96 154h101z" />
    <glyph glyph-name="iacute" unicode="&#xed;" horiz-adv-x="191" 
d="M141 0h-91v586h91v-586zM190 810l-96 -154h-64l59 154h101z" />
    <glyph glyph-name="icircumflex" unicode="&#xee;" horiz-adv-x="191" 
d="M141 0h-91v586h91v-586zM226 655h-59l-72 100l-71 -100h-57l77 155h104z" />
    <glyph glyph-name="idieresis" unicode="&#xef;" horiz-adv-x="191" 
d="M141 0h-91v586h91v-586zM222 701q0 -18 -12 -31t-29 -13h-10q-17 0 -29 13t-12 31v33q0 18 12 31.5t29 13.5h10q17 0 29 -13.5t12 -31.5v-33zM60 701q0 -18 -12 -31t-29 -13h-9q-17 0 -29.5 13t-12.5 31v33q0 18 12.5 31.5t29.5 13.5h9q17 0 29 -13.5t12 -31.5v-33z" />
    <glyph glyph-name="eth" unicode="&#xf0;" horiz-adv-x="436" 
d="M396 158q0 -79 -44.5 -126t-133.5 -47q-88 0 -133 46.5t-45 126.5v262q0 79 44.5 126t129.5 47q44 0 76 -30l-65 135l-78 -40l-20 41l77 40l-35 71h93l15 -34l59 30l20 -42l-58 -30l61 -127q12 -24 19 -44.5t11 -41.5t5.5 -45.5t1.5 -56.5v-261zM305 164v250
q0 19 -5.5 37.5t-16.5 33t-27 23.5t-37 9q-23 0 -39.5 -9t-27 -23.5t-16 -33.5t-5.5 -38v-250q0 -20 5.5 -38t16 -32.5t27 -23t38.5 -8.5t38.5 8.5t27.5 23t16 33t5 38.5z" />
    <glyph glyph-name="ntilde" unicode="&#xf1;" horiz-adv-x="447" 
d="M402 0h-91v423q0 21 -5.5 39.5t-16 32.5t-26 22.5t-36.5 8.5q-22 0 -38.5 -8.5t-27 -23.5t-15.5 -35.5t-5 -43.5v-415h-91v585h91v-33h1q19 23 48.5 36t59.5 13q33 0 61 -12.5t48 -35.5t31.5 -55.5t11.5 -73.5v-424zM372 768q0 -51 -17 -82t-50 -31q-16 0 -31.5 6.5
t-32.5 15.5q-18 10 -36.5 18t-38.5 8q-18 0 -27.5 -11.5t-14.5 -27.5h-39q1 52 22 84.5t56 32.5q16 0 30 -6.5t31 -15.5q16 -9 33 -17t35 -8t28 12.5t15 27.5h37v-6z" />
    <glyph glyph-name="ograve" unicode="&#xf2;" horiz-adv-x="436" 
d="M396 160q0 -80 -44.5 -127.5t-133.5 -47.5q-88 0 -133 47.5t-45 128.5v264q0 81 45.5 128.5t133.5 47.5q87 0 132 -48t45 -129v-264zM305 159v268q0 19 -5.5 36.5t-16.5 31t-27 22t-37 8.5q-45 0 -66.5 -30t-21.5 -70v-266q0 -40 21.5 -69.5t65.5 -29.5q45 0 66 29.5
t21 69.5zM258 656h-63l-96 154h101z" />
    <glyph glyph-name="oacute" unicode="&#xf3;" horiz-adv-x="436" 
d="M396 160q0 -80 -44.5 -127.5t-133.5 -47.5q-88 0 -133 47.5t-45 128.5v264q0 81 45.5 128.5t133.5 47.5q87 0 132 -48t45 -129v-264zM305 159v268q0 19 -5.5 36.5t-16.5 31t-27 22t-37 8.5q-45 0 -66.5 -30t-21.5 -70v-266q0 -40 21.5 -69.5t65.5 -29.5q45 0 66 29.5
t21 69.5zM340 810l-96 -154h-64l59 154h101z" />
    <glyph glyph-name="ocircumflex" unicode="&#xf4;" horiz-adv-x="436" 
d="M396 160q0 -80 -44.5 -127.5t-133.5 -47.5q-88 0 -133 47.5t-45 128.5v264q0 81 45.5 128.5t133.5 47.5q87 0 132 -48t45 -129v-264zM305 159v268q0 19 -5.5 36.5t-16.5 31t-27 22t-37 8.5q-45 0 -66.5 -30t-21.5 -70v-266q0 -40 21.5 -69.5t65.5 -29.5q45 0 66 29.5
t21 69.5zM354 655h-59l-72 100l-71 -100h-57l77 155h104z" />
    <glyph glyph-name="otilde" unicode="&#xf5;" horiz-adv-x="436" 
d="M396 160q0 -80 -44.5 -127.5t-133.5 -47.5q-88 0 -133 47.5t-45 128.5v264q0 81 45.5 128.5t133.5 47.5q87 0 132 -48t45 -129v-264zM305 159v268q0 19 -5.5 36.5t-16.5 31t-27 22t-37 8.5q-45 0 -66.5 -30t-21.5 -70v-266q0 -40 21.5 -69.5t65.5 -29.5q45 0 66 29.5
t21 69.5zM365 768q0 -51 -17 -82t-50 -31q-16 0 -31.5 6.5t-32.5 15.5q-18 10 -36.5 18t-38.5 8q-18 0 -27.5 -11.5t-14.5 -27.5h-39q1 52 22 84.5t56 32.5q16 0 30 -6.5t31 -15.5q16 -9 33 -17t35 -8t28 12.5t15 27.5h37v-6z" />
    <glyph glyph-name="odieresis" unicode="&#xf6;" horiz-adv-x="436" 
d="M396 160q0 -80 -44.5 -127.5t-133.5 -47.5q-88 0 -133 47.5t-45 128.5v264q0 81 45.5 128.5t133.5 47.5q87 0 132 -48t45 -129v-264zM305 159v268q0 19 -5.5 36.5t-16.5 31t-27 22t-37 8.5q-45 0 -66.5 -30t-21.5 -70v-266q0 -40 21.5 -69.5t65.5 -29.5q45 0 66 29.5
t21 69.5zM347 700q0 -18 -12 -31t-29 -13h-10q-17 0 -29 13t-12 31v33q0 18 12 31.5t29 13.5h10q17 0 29 -13.5t12 -31.5v-33zM185 700q0 -18 -12 -31t-29 -13h-9q-17 0 -29.5 13t-12.5 31v33q0 18 12.5 31.5t29.5 13.5h9q17 0 29 -13.5t12 -31.5v-33z" />
    <glyph glyph-name="divide" unicode="&#xf7;" horiz-adv-x="568" 
d="M340 541q0 -21 -15 -36.5t-36 -15.5h-10q-21 0 -36 15.5t-15 36.5v30q0 20 15 36t36 16h10q21 0 36 -16t15 -36v-30zM518 298h-468v75h468v-75zM340 100q0 -21 -15 -36.5t-36 -15.5h-10q-21 0 -36 15.5t-15 36.5v30q0 20 15 36t36 16h10q21 0 36 -16t15 -36v-30z" />
    <glyph glyph-name="oslash" unicode="&#xf8;" horiz-adv-x="436" 
d="M396 160q0 -80 -44.5 -127.5t-133.5 -47.5q-68 0 -111 29l-23 -47l-38 18l29 59q-35 46 -35 117v264q0 81 45.5 128.5t133.5 47.5q34 0 61 -8t49 -22l23 48l38 -18l-29 -60q35 -46 35 -117v-264zM287 485q-11 17 -28 28.5t-40 11.5t-39.5 -9t-27 -24t-16 -34t-5.5 -39
v-254v-4zM305 165v256v4l-157 -326q11 -17 28 -28t42 -11q22 0 38.5 9t27.5 23.5t16 33.5t5 39z" />
    <glyph glyph-name="ugrave" unicode="&#xf9;" horiz-adv-x="445" 
d="M395 0h-91v33h-1q-19 -22 -48 -35t-58 -13q-67 0 -109.5 47.5t-42.5 129.5v424h91v-424q0 -21 5 -39.5t15.5 -32.5t26.5 -22.5t37 -8.5q44 0 64 32.5t20 78.5v416h91v-586zM258 656h-63l-96 154h101z" />
    <glyph glyph-name="uacute" unicode="&#xfa;" horiz-adv-x="445" 
d="M395 0h-91v33h-1q-19 -22 -48 -35t-58 -13q-67 0 -109.5 47.5t-42.5 129.5v424h91v-424q0 -21 5 -39.5t15.5 -32.5t26.5 -22.5t37 -8.5q44 0 64 32.5t20 78.5v416h91v-586zM340 811l-96 -154h-64l59 154h101z" />
    <glyph glyph-name="ucircumflex" unicode="&#xfb;" horiz-adv-x="445" 
d="M395 0h-91v33h-1q-19 -22 -48 -35t-58 -13q-67 0 -109.5 47.5t-42.5 129.5v424h91v-424q0 -21 5 -39.5t15.5 -32.5t26.5 -22.5t37 -8.5q44 0 64 32.5t20 78.5v416h91v-586zM351 655h-59l-72 100l-71 -100h-57l77 155h104z" />
    <glyph glyph-name="udieresis" unicode="&#xfc;" horiz-adv-x="445" 
d="M395 0h-91v33h-1q-19 -22 -48 -35t-58 -13q-67 0 -109.5 47.5t-42.5 129.5v424h91v-424q0 -21 5 -39.5t15.5 -32.5t26.5 -22.5t37 -8.5q44 0 64 32.5t20 78.5v416h91v-586zM345 701q0 -18 -12 -31t-29 -13h-10q-17 0 -29 13t-12 31v33q0 18 12 31.5t29 13.5h10
q17 0 29 -13.5t12 -31.5v-33zM183 701q0 -18 -12 -31t-29 -13h-9q-17 0 -29.5 13t-12.5 31v33q0 18 12.5 31.5t29.5 13.5h9q17 0 29 -13.5t12 -31.5v-33z" />
    <glyph glyph-name="yacute" unicode="&#xfd;" horiz-adv-x="376" 
d="M371 585l-144 -638q-10 -43 -22 -71.5t-29 -45.5t-40 -24t-55 -7q-13 0 -27.5 2t-28.5 5v77q20 -5 37 -5q18 0 32 3t24 12t17 25t12 41l8 39l-150 587h93l95 -393h1l84 393h93zM303 810l-96 -154h-64l59 154h101z" />
    <glyph glyph-name="thorn" unicode="&#xfe;" horiz-adv-x="445" 
d="M405 160q0 -41 -11.5 -73t-31.5 -55t-47.5 -35t-58.5 -12q-69 0 -114 46h-1v-231h-91v1010h91v-258h1q20 23 50.5 36t62.5 13q33 0 60.5 -12t47.5 -34.5t31 -54.5t11 -72v-268zM314 164v258q0 19 -5 38t-16 33t-27.5 23t-38.5 9t-38.5 -9t-27 -23t-16 -33t-5.5 -38v-256
q0 -20 5.5 -38.5t16 -33t27 -23.5t39.5 -9q21 0 37 9t27 23.5t16.5 32.5t5.5 37z" />
    <glyph glyph-name="ydieresis" unicode="&#xff;" horiz-adv-x="376" 
d="M371 585l-144 -638q-10 -43 -22 -71.5t-29 -45.5t-40 -24t-55 -7q-13 0 -27.5 2t-28.5 5v77q20 -5 37 -5q18 0 32 3t24 12t17 25t12 41l8 39l-150 587h93l95 -393h1l84 393h93zM316 700q0 -18 -12 -31t-29 -13h-10q-17 0 -29 13t-12 31v33q0 18 12 31.5t29 13.5h10
q17 0 29 -13.5t12 -31.5v-33zM154 700q0 -18 -12 -31t-29 -13h-9q-17 0 -29.5 13t-12.5 31v33q0 18 12.5 31.5t29.5 13.5h9q17 0 29 -13.5t12 -31.5v-33z" />
    <glyph glyph-name="dotlessi" unicode="&#x131;" horiz-adv-x="191" 
d="M141 0h-91v586h91v-586z" />
    <glyph glyph-name="OE" unicode="&#x152;" horiz-adv-x="781" 
d="M761 0h-373v17q-23 -14 -54 -23t-66 -9q-46 0 -85.5 11.5t-69 36t-46.5 61.5t-17 88v445q0 52 16 89.5t45 62t69.5 36t88.5 11.5q35 0 65.5 -8.5t53.5 -22.5v15h371v-88l-273 1v-268h236v-82h-236v-286h275v-87zM388 209v392q0 29 -6.5 54.5t-20.5 44.5t-37 30t-56 11
t-55.5 -10.5t-37 -29.5t-20.5 -44.5t-6 -55.5v-392q0 -29 6.5 -54.5t20.5 -44.5t37 -29.5t55 -10.5t54.5 10.5t37 29.5t21.5 44.5t7 54.5z" />
    <glyph glyph-name="oe" unicode="&#x153;" horiz-adv-x="705" 
d="M665 276h-269v-120q0 -41 24 -68t66 -27q40 0 62 26t26 65h90v-10q0 -35 -13 -64t-36.5 -49.5t-55.5 -32t-70 -11.5q-47 0 -82 14t-56 38q-24 -25 -56 -38.5t-77 -13.5q-88 0 -133 47.5t-45 128.5v264q0 81 45 128.5t134 47.5q44 0 77 -14t55 -40q22 25 56 39.5t79 14.5
q46 0 79.5 -13.5t55.5 -37t33 -55t11 -67.5v-152zM575 348v74q0 19 -6 37.5t-17 33t-27.5 23.5t-38.5 9t-38.5 -9t-28 -23.5t-17 -33t-5.5 -37.5v-74h178zM305 165v256q0 19 -5.5 37.5t-16.5 33.5t-27 24t-37 9q-23 0 -39.5 -9t-27 -24t-16 -34t-5.5 -39v-254q0 -20 5.5 -39
t16 -33.5t27 -23.5t38.5 -9t38.5 9t27.5 23.5t16 33.5t5 39z" />
    <glyph glyph-name="Scaron" unicode="&#x160;" horiz-adv-x="487" 
d="M452 169q0 -45 -16.5 -79t-45 -57.5t-67 -35.5t-81.5 -12t-81 11t-66 33t-44 54.5t-16 75.5v14h98q5 -51 34.5 -77t74.5 -26q48 0 79.5 28.5t31.5 80.5v29q0 36 -14.5 67.5t-54.5 56.5l-152 93q-50 31 -69.5 69.5t-19.5 92.5v56q0 41 14.5 75t40.5 58t62.5 37t80.5 13
q90 0 145 -44t55 -131v-18h-99q-8 108 -100 108q-48 0 -74.5 -29.5t-26.5 -81.5v-21q0 -42 14.5 -68.5t50.5 -49.5l153 -94q48 -29 70.5 -69.5t22.5 -98.5v-60zM376 1031l-77 -155h-104l-78 155h58l73 -99l70 99h58z" />
    <glyph glyph-name="scaron" unicode="&#x161;" horiz-adv-x="400" 
d="M370 129q0 -33 -12.5 -59.5t-35 -45.5t-54 -29t-68.5 -10q-34 0 -64.5 9.5t-53.5 29.5t-37 52t-15 76h89q4 -45 25.5 -68t54.5 -23t57 18.5t24 53.5v16q0 23 -11 45.5t-39 38.5l-121 67q-35 20 -54 54t-19 70v37q0 30 12 55.5t34 44.5t52 29.5t66 10.5q35 0 64.5 -10.5
t51.5 -31t35 -51t14 -71.5h-90q-5 88 -74 88q-35 0 -54.5 -20t-19.5 -49v-15q0 -54 46 -79l122 -68q35 -20 55 -51t20 -77v-37zM336 809l-77 -155h-104l-78 155h58l73 -99l70 99h58z" />
    <glyph glyph-name="Ydieresis" unicode="&#x178;" horiz-adv-x="486" 
d="M476 810l-184 -491v-319h-98v319l-184 491h100l133 -361h1l132 361h100zM371 921q0 -18 -12 -31t-29 -13h-10q-17 0 -29 13t-12 31v33q0 18 12 31.5t29 13.5h10q17 0 29 -13.5t12 -31.5v-33zM209 921q0 -18 -12 -31t-29 -13h-9q-17 0 -29.5 13t-12.5 31v33
q0 18 12.5 31.5t29.5 13.5h9q17 0 29 -13.5t12 -31.5v-33z" />
    <glyph glyph-name="Zcaron" unicode="&#x17d;" horiz-adv-x="440" 
d="M415 0h-395v85l295 637h-292v88h392v-86l-294 -637h294v-87zM366 1030l-77 -155h-104l-78 155h58l73 -99l70 99h58z" />
    <glyph glyph-name="zcaron" unicode="&#x17e;" horiz-adv-x="375" 
d="M350 0h-325v73l221 437h-197v75h291v-73l-222 -436h232v-76zM320 810l-77 -155h-104l-78 155h58l73 -99l70 99h58z" />
    <glyph glyph-name="florin" unicode="&#x192;" horiz-adv-x="360" 
d="M350 814l-11 -76q-40 4 -59.5 -16t-27.5 -70l-9 -68h69l-9 -61h-68l-69 -497l-10 -74q-6 -45 -17.5 -74.5t-29.5 -47t-44.5 -24t-62.5 -6.5q-9 0 -17 0.5t-15 1.5l10 76q41 -5 60.5 15.5t26.5 70.5l8 58l69 501h-66l9 61h65l11 79q6 46 17.5 75.5t30 46.5t45 24t62.5 7
q9 0 17 -0.5t15 -1.5z" />
    <glyph glyph-name="circumflex" unicode="&#x2c6;" horiz-adv-x="574" 
d="M351 655h-59l-72 100l-71 -100h-57l77 155h104z" />
    <glyph glyph-name="caron" unicode="&#x2c7;" horiz-adv-x="574" 
d="M383 810l-77 -155h-104l-78 155h58l73 -99l70 99h58z" />
    <glyph glyph-name="ring" unicode="&#x2da;" horiz-adv-x="672" 
d="M341 744q0 -20 -7.5 -37t-20 -29.5t-30 -20t-36.5 -7.5q-20 0 -37 7.5t-29.5 20t-20 29.5t-7.5 37q0 19 7.5 36.5t20 30t29.5 20t37 7.5q19 0 36.5 -7.5t30 -20t20 -30t7.5 -36.5zM288 744q0 17 -12 29t-29 12t-29 -12t-12 -29t12 -29t29 -12t29 12t12 29z" />
    <glyph glyph-name="tilde" unicode="&#x2dc;" horiz-adv-x="665" 
d="M363 768q0 -51 -17 -82t-50 -31q-16 0 -31.5 6.5t-32.5 15.5q-18 10 -36.5 18t-38.5 8q-18 0 -27.5 -11.5t-14.5 -27.5h-39q1 52 22 84.5t56 32.5q16 0 30 -6.5t31 -15.5q16 -9 33 -17t35 -8t28 12.5t15 27.5h37v-6z" />
    <glyph glyph-name="endash" unicode="&#x2013;" horiz-adv-x="396" 
d="M376 264h-351v86h351v-86z" />
    <glyph glyph-name="emdash" unicode="&#x2014;" horiz-adv-x="630" 
d="M610 264h-585v86h585v-86z" />
    <glyph glyph-name="quoteleft" unicode="&#x2018;" horiz-adv-x="199" 
d="M159 645q0 -20 -14.5 -35.5t-35.5 -15.5h-9q-21 0 -35.5 15.5t-14.5 35.5v53q0 23 2.5 39t7.5 27t14 18t23 12l42 16l16 -40l-41 -16q-15 -6 -15 -17q0 -5 1.5 -9.5t8.5 -4.5q21 0 35.5 -13.5t14.5 -33.5v-31z" />
    <glyph glyph-name="quoteright" unicode="&#x2019;" horiz-adv-x="199" 
d="M154 706q0 -23 -2.5 -39t-7.5 -27t-14.5 -18t-22.5 -12l-42 -16l-16 40l42 16q14 6 14 17q0 5 -1.5 9.5t-8.5 4.5q-21 0 -35.5 13.5t-14.5 33.5v31q0 20 14.5 35.5t35.5 15.5h9q21 0 35.5 -15.5t14.5 -35.5v-53z" />
    <glyph glyph-name="quotesinglbase" unicode="&#x201a;" horiz-adv-x="199" 
d="M154 15q0 -23 -2.5 -39t-7.5 -27t-14.5 -18t-22.5 -12l-42 -16l-16 40l42 16q14 6 14 17q0 5 -1.5 9.5t-8.5 4.5q-21 0 -35.5 13.5t-14.5 33.5v31q0 20 14.5 35.5t35.5 15.5h9q21 0 35.5 -15.5t14.5 -35.5v-53z" />
    <glyph glyph-name="quotedblleft" unicode="&#x201c;" horiz-adv-x="347" 
d="M307 645q0 -20 -14.5 -35.5t-35.5 -15.5h-9q-21 0 -35.5 15.5t-14.5 35.5v53q0 23 2.5 39t7.5 27t14 18t23 12l42 16l16 -40l-41 -16q-15 -6 -15 -17q0 -5 1.5 -9.5t8.5 -4.5q21 0 35.5 -13.5t14.5 -33.5v-31zM159 645q0 -20 -14.5 -35.5t-35.5 -15.5h-9
q-21 0 -35.5 15.5t-14.5 35.5v53q0 23 2.5 39t7.5 27t14 18t23 12l42 16l16 -40l-41 -16q-15 -6 -15 -17q0 -5 1.5 -9.5t8.5 -4.5q21 0 35.5 -13.5t14.5 -33.5v-31z" />
    <glyph glyph-name="quotedblright" unicode="&#x201d;" horiz-adv-x="347" 
d="M302 706q0 -23 -2.5 -39t-7.5 -27t-14.5 -18t-22.5 -12l-42 -16l-16 40l42 16q14 6 14 17q0 5 -1.5 9.5t-8.5 4.5q-21 0 -35.5 13.5t-14.5 33.5v31q0 20 14.5 35.5t35.5 15.5h9q21 0 35.5 -15.5t14.5 -35.5v-53zM154 706q0 -23 -2.5 -39t-7.5 -27t-14.5 -18t-22.5 -12
l-42 -16l-16 40l42 16q14 6 14 17q0 5 -1.5 9.5t-8.5 4.5q-21 0 -35.5 13.5t-14.5 33.5v31q0 20 14.5 35.5t35.5 15.5h9q21 0 35.5 -15.5t14.5 -35.5v-53z" />
    <glyph glyph-name="quotedblbase" unicode="&#x201e;" horiz-adv-x="347" 
d="M302 15q0 -23 -2.5 -39t-7.5 -27t-14.5 -18t-22.5 -12l-42 -16l-16 40l42 16q14 6 14 17q0 5 -1.5 9.5t-8.5 4.5q-21 0 -35.5 13.5t-14.5 33.5v31q0 20 14.5 35.5t35.5 15.5h9q21 0 35.5 -15.5t14.5 -35.5v-53zM154 15q0 -23 -2.5 -39t-7.5 -27t-14.5 -18t-22.5 -12
l-42 -16l-16 40l42 16q14 6 14 17q0 5 -1.5 9.5t-8.5 4.5q-21 0 -35.5 13.5t-14.5 33.5v31q0 20 14.5 35.5t35.5 15.5h9q21 0 35.5 -15.5t14.5 -35.5v-53z" />
    <glyph glyph-name="dagger" unicode="&#x2020;" horiz-adv-x="475" 
d="M450 522h-171v-522h-87v522h-167v78h167v210h87v-210h171v-78z" />
    <glyph glyph-name="daggerdbl" unicode="&#x2021;" horiz-adv-x="475" 
d="M450 210h-171v-210h-87v210h-167v78h167v234h-167v78h167v210h87v-210h171v-78h-171v-234h171v-78z" />
    <glyph glyph-name="bullet" unicode="&#x2022;" horiz-adv-x="360" 
d="M280 415q0 -29 -11 -54.5t-30 -44.5t-44.5 -30t-54.5 -11t-54.5 11t-44.5 30t-30 44.5t-11 54.5t11 54.5t30 44t44.5 29.5t54.5 11t54.5 -11t44.5 -29.5t30 -44t11 -54.5z" />
    <glyph glyph-name="ellipsis" unicode="&#x2026;" horiz-adv-x="583" 
d="M533 32q0 -19 -13.5 -33t-33.5 -14h-9q-20 0 -33.5 14t-13.5 33v27q0 20 13.5 34.5t33.5 14.5h9q20 0 33.5 -14.5t13.5 -34.5v-27zM343 32q0 -19 -13.5 -33t-33.5 -14h-9q-20 0 -33.5 14t-13.5 33v27q0 20 13.5 34.5t33.5 14.5h9q20 0 33.5 -14.5t13.5 -34.5v-27zM153 32
q0 -19 -13.5 -33t-33.5 -14h-9q-20 0 -33.5 14t-13.5 33v27q0 20 13.5 34.5t33.5 14.5h9q20 0 33.5 -14.5t13.5 -34.5v-27z" />
    <glyph glyph-name="perthousand" unicode="&#x2030;" horiz-adv-x="1133" 
d="M1093 123q0 -63 -35.5 -100.5t-107.5 -37.5q-71 0 -107 37.5t-36 100.5v207q0 63 36.5 100t107.5 37q70 0 106 -37.5t36 -100.5v-206zM753 123q0 -63 -35.5 -100.5t-107.5 -37.5q-71 0 -107 37.5t-36 100.5v207q0 63 36.5 100t107.5 37q70 0 106 -37.5t36 -100.5v-206z
M584 847l-317 -898l-56 19l317 900zM326 480q0 -63 -35.5 -100.5t-107.5 -37.5q-71 0 -107 37.5t-36 100.5v207q0 63 36 100.5t107 37.5q70 0 106.5 -38t36.5 -101v-206zM1020 132v190q0 15 -4.5 29t-13.5 25.5t-22 18.5t-29 7q-36 0 -53 -25t-17 -56v-190q0 -31 17 -55.5
t52 -24.5q36 0 53 24.5t17 56.5zM680 132v190q0 15 -4.5 29t-13.5 25.5t-22 18.5t-29 7q-36 0 -53 -25t-17 -56v-190q0 -31 17 -55.5t52 -24.5q36 0 53 24.5t17 56.5zM252 489v190q0 15 -4.5 29t-13.5 25.5t-22 18.5t-29 7q-35 0 -52 -25t-17 -56v-189q0 -31 17 -56t52 -25
q36 0 52.5 25t16.5 56z" />
    <glyph glyph-name="guilsinglleft" unicode="&#x2039;" horiz-adv-x="258" 
d="M218 96l-178 169v80l178 169v-81l-137 -129l137 -127v-81z" />
    <glyph glyph-name="guilsinglright" unicode="&#x203a;" horiz-adv-x="258" 
d="M218 265l-178 -169v81l137 127l-137 129v81l178 -169v-80z" />
    <glyph glyph-name="Euro" unicode="&#x20ac;" horiz-adv-x="465" 
d="M425 4q-23 -9 -49 -14t-52 -5q-60 0 -103.5 21.5t-73 61t-46.5 96t-23 126.5h-58l29 59h27v50v51h-56l29 59h29q13 158 74.5 237.5t171.5 79.5q26 0 53.5 -5.5t47.5 -16.5v-86q-21 12 -44 17t-50 5q-41 0 -69.5 -19t-47 -51t-28 -74t-12.5 -87h184l-29 -59h-156v-101h185
l-29 -59h-155q3 -45 12.5 -85t28 -70.5t47 -48t69.5 -17.5q51 0 94 23v-88z" />
    <glyph glyph-name="trademark" unicode="&#x2122;" horiz-adv-x="555" 
d="M535 405h-49v320v0l-75 -225h-26l-74 225v0v-320h-49v405h64l72 -218h1l71 218h65v-405zM229 766h-80v-361h-49v361h-80v44h209v-44z" />
    </font>
</defs>
</svg>
